<svg width="532" height="408" viewBox="0 0 532 408" fill="none" xmlns="http://www.w3.org/2000/svg">
<g clip-path="url(#clip0_31_48)">
<path d="M443.462 142.307C459.56 139.46 469.639 141.263 473.702 147.717L461.287 153.071C453.732 142.668 444.924 140.96 434.863 147.945C430.08 146.085 432.946 144.206 443.462 142.307Z" fill="#5685D8"/>
<path d="M420 158.196C422.733 146.882 434.427 141.225 455.08 141.225C447.335 141.947 440.444 147.338 434.408 157.398L420 158.196Z" fill="#739AF0"/>
<path d="M502.373 405.775C487.382 361.795 474.629 341.684 464.114 345.444C453.599 349.166 466.352 369.277 502.373 405.775Z" fill="#82B378"/>
<path d="M493.741 405.775C491.822 405.775 455.961 366.01 453.563 376.436C452 383.348 465.393 393.128 493.741 405.775Z" fill="#82B378"/>
<path d="M442 405.775C446.014 400.078 451.947 398.179 459.798 400.078C471.574 402.984 479.62 398.825 498.377 395.008C510.917 392.501 522.124 396.09 532 405.775H442Z" fill="#82B378"/>
<path d="M428.3 27.4C423.167 25.0666 418.4 17.7333 414 5.39996C416.067 2.3333 421.833 0.533333 431.3 0C432.367 7.46667 437.767 14.2666 447.5 20.4C446.233 25.8 439.833 28.1333 428.3 27.4Z" fill="#ED7D2B"/>
<path d="M62.9354 409H0.98819C-2.3292 406.253 3.29012 399.887 9.18018 399.485C11.6851 399.284 14.9348 399.821 18.5907 400.558C19.4708 389.368 24.3454 339.048 42.6926 341.059C63.274 343.337 42.6925 363.237 36.8702 375.029C32.5373 383.74 28.0013 396.269 25.9025 402.166C27.5725 402.523 29.2875 402.858 31.0477 403.171C33.8235 394.929 43.9789 366.989 56.91 368.597C72.0752 370.473 65.982 381.73 55.2174 388.363C47.2963 393.254 37.6149 400.156 33.0112 403.573C36.9379 404.176 40.9999 404.578 45.1298 404.511C55.7589 404.243 60.9043 407.325 62.9354 409Z" fill="#82B378"/>
<path d="M380.462 246.307C396.56 243.46 406.639 245.263 410.702 251.717L398.287 257.071C390.732 246.668 381.924 244.96 371.863 251.945C367.08 250.085 369.946 248.206 380.462 246.307Z" fill="#5685D8"/>
<path d="M357 262.196C359.733 250.882 371.427 245.225 392.08 245.225C384.335 245.947 377.444 251.338 371.408 261.398L357 262.196Z" fill="#739AF0"/>
<path d="M109.462 113.307C125.56 110.46 135.639 112.263 139.702 118.717L127.287 124.071C119.732 113.668 110.924 111.96 100.863 118.945C96.0798 117.085 98.9462 115.206 109.462 113.307Z" fill="#5685D8"/>
<path d="M86 129.196C88.7335 117.882 100.427 112.225 121.08 112.225C113.335 112.947 106.444 118.338 100.408 128.398L86 129.196Z" fill="#739AF0"/>
<path d="M80.2999 263.4C75.1666 261.067 70.4 253.733 66 241.4C68.0667 238.333 73.8333 236.533 83.2999 236C84.3666 243.467 89.7667 250.267 99.5 256.4C98.2333 261.8 91.8333 264.133 80.2999 263.4Z" fill="#ED7D2B"/>
<path d="M346.3 334.4C341.167 332.067 336.4 324.733 332 312.4C334.067 309.333 339.833 307.533 349.3 307C350.367 314.467 355.767 321.267 365.5 327.4C364.233 332.8 357.833 335.133 346.3 334.4Z" fill="#ED7D2B"/>
<path d="M26.5218 191.975C24.7461 193.98 20.7363 196.672 18.2159 197.302C12.7167 198.639 6.64478 197.493 0 193.865L3.89521 186.304C4.12434 186.591 9.62346 191.288 14.9507 191.574C19.7625 191.841 24.2496 190.409 28.4121 187.278C28.4503 188.958 27.8202 190.524 26.5218 191.975Z" fill="#6BB7BF"/>
<path d="M27.4957 171.926L37.9212 167C37.6539 181.817 31.5246 191.765 19.5334 196.844C26.7511 186.381 29.4052 178.075 27.4957 171.926Z" fill="#86D1CD"/>
<path d="M152.522 300.975C150.746 302.98 146.736 305.672 144.216 306.302C138.717 307.639 132.645 306.493 126 302.865L129.895 295.304C130.124 295.591 135.623 300.288 140.951 300.574C145.762 300.841 150.25 299.409 154.412 296.278C154.45 297.958 153.82 299.524 152.522 300.975Z" fill="#6BB7BF"/>
<path d="M153.496 280.926L163.921 276C163.654 290.817 157.525 300.765 145.533 305.844C152.751 295.381 155.405 287.075 153.496 280.926Z" fill="#86D1CD"/>
<path d="M479.522 225.975C477.746 227.98 473.736 230.672 471.216 231.302C465.717 232.639 459.645 231.493 453 227.865L456.895 220.304C457.124 220.591 462.623 225.288 467.951 225.574C472.762 225.841 477.25 224.409 481.412 221.278C481.45 222.958 480.82 224.524 479.522 225.975Z" fill="#6BB7BF"/>
<path d="M480.496 205.926L490.921 201C490.654 215.817 484.525 225.765 472.533 230.844C479.751 220.381 482.405 212.075 480.496 205.926Z" fill="#86D1CD"/>
</g>
<defs>
<clipPath id="clip0_31_48">
<rect width="532" height="408" fill="white"/>
</clipPath>
</defs>
</svg>
