<svg width="1378" height="488" fill="none" xmlns="http://www.w3.org/2000/svg"><path d="M579.485 500.289c-42.05-91.029-38.75-164.901 9.902-221.615 59.957-69.957 141.475-83.706 204.823-41.58 26.981 17.967 102.29 13.688 193.043-71.656 117.887-110.869 413.337-49.41 356.287 172.236-27.61 107.257 90.6 55.632 33.74 162.828l-797.795-.213Z" fill="#CDE7FB"/><path d="m690.406 345.14-12.173 28.135-4.27-.668 2.877-31.625 13.566 4.158Z" fill="#FFB27D"/><path d="M678.808 370.027c-.666 2.206-.797 4.138-.394 5.797.424 1.639-2.119 3.885-4.936 7.011-.302.334-.817 0-.757-.425.031-.212.091-.455.212-.759.344-.809 1.01-1.902 1.999-3.278-.121-.455-3.149 1.184-4.845 2.307-.969.637-3.816 3.733-4.603 3.278-.757-.455.485-3.43 1.817-5.615 1.302-2.185 6.056-4.036 6.662-5.736.384-1.113 1.999-1.973 4.845-2.58Z" fill="#FFB27D"/><path d="m692.677 226.199 31.432-13.445 28.979 13.839-28.979 14.75-31.432-15.144Z" fill="#233862"/><path d="M692.737 226.047c.031-.243.303-.334.515-.213a.688.688 0 0 1 .242.607c-.393 1.852-1.635 9.803 4.724 14.599l-.454.576c-6.601-4.977-5.451-13.445-5.027-15.569Z" fill="#EFCBAB"/><path d="m698.218 241.04.939.334-.787 1.032-.606-.79.454-.576Z" fill="#D8A987"/><path d="M699.157 241.374c.787.586 1.312.789 1.575.607-.263.748-.576 1.163-.939 1.244-.727-.243-1.201-.516-1.423-.82l.787-1.031Z" fill="#EFCBAB"/><path d="m712.995 466.358-2.15 9.014-2.816 11.928h-8.842l-.545-11.442-.394-8.802 14.747-.698Z" fill="#FFB27D"/><path d="M695.675 500.381c0-2.894.212-4.816.635-5.767.404-.971 1.363-3.409 2.877-7.314h8.842c1.09 3.561 1.676 5.928 1.757 7.102.06 1.173.06 3.166 0 5.979h-14.111ZM737.765 500.381c-.08-2.813-.08-4.806 0-5.979.061-1.174.636-3.541 1.727-7.102h8.842c1.514 3.905 2.483 6.343 2.907 7.314.403.951.605 2.873.605 5.767h-14.081Z" fill="#233862"/><path d="M731.83 253.24c-.928 3.197-.504 9.115 1.272 17.755l8.751 12.14-15.14 38.757-21.621-30.016 9.781-21.093c.807-2.894 1.322-7.558 1.544-13.992 11.204-5.564 16.342-6.748 15.413-3.551Z" fill="#FFB27D"/><path d="M731.467 258.612c-.828 4.148-3.069 6.273-6.722 6.374-5.481.152-8.388-6.859-8.388-6.859l15.11.485Z" fill="#ED985F"/><path d="M713.086 252.451c-1.171-5.908-2.17-9.752-2.998-11.533-1.241-2.67-2.271-14.628 11.416-15.266 3.493.425 6.198.051 8.116-1.123 0 1.174-.242 1.963-.727 2.368 2.382-1.498 4.805-.87 7.268 1.881 3.724 4.128-1.303 19.667-.969 23.066l-22.106.607Z" fill="#132644"/><path d="M724.109 262.285c-3.967-.091-11.265-5.372-11.265-11.928v-10.228c0-2.397 1.665-4.37 3.694-4.37h15.141c2.029 0 3.694 1.973 3.694 4.37v9.651c0 6.86-6.722 12.565-11.264 12.505Z" fill="#FFB27D"/><path d="M712.844 235.455c1.12-2.853 23.71-2.944 22.166 1.548-1.544 4.492-12.446.546-17.291 1.487-3.25.628-4.875 2.995-4.875 7.102-.767-4.856-.767-8.235 0-10.137Z" fill="#132644"/><path d="m714.873 270.783 9.024 2.033 9.145-2.215 2.331 14.082-10.265 34.994-11.204-41.944.969-6.95Z" fill="#fff"/><path d="m714.873 272.422 9.024.394 8.388-2.215 1.514 1.76-7.662 6.677-2.18-3.855-2.362 3.855-7.176-5.372.454-1.244Z" fill="#D2E3FC"/><path d="M755.48 422.533c-.242 12.656-1.272 54.508-1.514 66.8h-19.41c-1.363-8.923-5.935-43.188-7.51-50.624-1.09-5.25-1.908-9.651-1.877-12.382 0-1.73-.334-4.492-.879-7.891a315.131 315.131 0 0 1-1.907 9.044c-1.484 6.707-4.24 45.737-6.662 61.368l-18.502-.213c-1.787-13.809-3.694-52.9-4.542-66.102-1.777-27.598-.404-51.747 4.118-72.446l26.981 1.7 6.328-.395c.152-.242.303-.242.424-.03l21.53-1.366c2.665 25.858 3.806 50.037 3.422 72.537Z" fill="#EE9849"/><path d="M766.926 459.104c-9.902 5.19-77.308 11.351-89.39-2.913-1.353-1.619 7.54-62.744 26.678-183.375 1.231-.364 2.887-.738 4.966-1.123a93.667 93.667 0 0 1 5.693-.88c.03.668 4.663 30.077 10.992 41.519 4.784-10.542 7.197-24.321 7.237-41.337 0-.152-.03-.273-.06-.394 1.362.151 2.755.333 4.118.576a62.229 62.229 0 0 1 8.448 2.094c15.585 123.161 22.691 185.105 21.318 185.833Z" fill="#1C468A"/><path d="M712.026 271.147c-6.884 52.93-11.638 81.378-14.262 85.344-1.666 2.489-4.088 2.914-6.934 2.337a19.99 19.99 0 0 1-1.696-.395l-7.904-3.065h-.03a49.08 49.08 0 0 0-3.846-1.396c-8.145-2.519-7.509-9.378-5.329-18.726 2.21-9.348 16.533-54.326 21.348-57.513 5.693-3.743 11.911-5.939 18.653-6.586Z" fill="#1C468A"/><path d="M733.042 270.601c-6.783-.729-13.142-.395-18.169.212v-.03c11.224-6.961 17.28-7.021 18.169-.182Z" fill="#FFB27D"/><path d="M727.137 319.677c-6.945-5.119-12.93-21.114-17.957-47.984a93.667 93.667 0 0 1 5.693-.88c.03.668 4.421 28.438 10.75 39.91 4.946-9.469 7.439-22.712 7.479-39.728 0-.152-.03-.273-.06-.394 1.362.151 2.755.333 4.118.576a54.21 54.21 0 0 1 1.756.334c.02 14.346-3.906 30.401-11.779 48.166Z" fill="#BC3F3F"/><path d="M720.596 254.697c3.17-.324 5.491-.303 6.965.061-.808 1.275-1.847 1.902-3.119 1.882-1.938 0-3.392-.729-3.846-1.943Z" fill="#FFF0E6"/><path d="M711.996 225.592c12.143-5.858 19.804-2.368 23.074-.486a4.746 4.746 0 0 1 2.241 3.126l.242 6.677c-11.668-4.35-21.045-4.148-28.131.607l-.303-4.644c.122-1.881 1.181-4.461 2.877-5.28Z" fill="#1C468A"/><path d="m723.897 272.816-2.271 4.917-9.6-6.586 3.634-4.613 8.237 6.282Z" fill="#fff"/><path d="m734.586 270.783-8.267 6.95-2.422-4.917 8.418-6.282 2.271 4.249Z" fill="#fff"/><path d="M723.624 283.681c.273-.273.697-.273.939 0a.645.645 0 0 1 0 .941c-.242.273-.666.273-.939 0a.7.7 0 0 1 0-.941ZM723.624 290.844c.273-.273.697-.273.939 0 .272.243.272.668 0 .941-.242.243-.666.243-.939 0-.242-.273-.242-.698 0-.941ZM723.624 298.189c.273-.243.697-.243.939 0 .272.273.272.698 0 .941-.242.273-.666.273-.939 0-.242-.243-.242-.668 0-.941Z" fill="#D2E3FC"/><path d="M745.578 273.271c4.32 1.801 7.641 5.352 9.963 10.653 3.452 7.952 17.835 29.683 17.411 39.85-.424 10.167-2.362 19.424-12.021 19.727-6.632.213-13.385-6.282-13.385-15.994 0-6.495-.656-24.574-1.968-54.236Z" fill="#1C468A"/><path d="M766.169 337.796c-.272 2.761-1.302 4.977-3.724 5.584-7.752 1.942-11.174-5.554-9.569-12.899a6.85 6.85 0 0 1 .212-.698c1.635-5.372 7.6-6.191 9.781-6.313.343-.02.615-.03.817-.03.041.081.081.202.121.364.576 1.639 2.847 8.771 2.362 13.992Z" fill="#233862"/><path d="M766.169 337.796c-15.06-6.779-25.567-14.073-31.522-21.883-.445-.566-.101-1.204 1.029-1.912l27.193 9.469.938.334c.576 1.639 2.847 8.771 2.362 13.992Z" fill="#FFB27D"/><path d="M739.613 353.972h-29.858v-39.425h29.858v39.425Z" fill="#FCECDB"/><path d="m724.533 344.169-2.847 5.19-.908-1.7-2.12.304 3.361-5.615 2.514 1.821Z" fill="#932424"/><path d="m726.471 341.984 3.361 5.615-2.12-.304-.908 1.7-2.877-5.16 2.544-1.851Z" fill="#932424"/><path d="M720.838 341.104c.364-2.459 1.696-3.43 3.725-3.733 2.665-.395 3.724 1.669 3.724 3.733a3.726 3.726 0 0 1-3.724 3.733c-2.059 0-4.028-1.7-3.725-3.733Z" fill="#BC3F3F"/><path fill-rule="evenodd" clip-rule="evenodd" d="M724.563 344.078a3.229 3.229 0 0 1-2.392-1.093c-.485-.576-.697-1.244-.576-1.912.273-1.79 1.181-2.701 2.938-2.944.827-.141 1.504.021 2.028.486.606.516.969 1.426.969 2.489a2.975 2.975 0 0 1-2.967 2.974Zm.484-5.645c-.141 0-.292.01-.454.03-1.635.243-2.422 1.032-2.665 2.671-.09.546.091 1.153.515 1.609a2.8 2.8 0 0 0 2.12.971c1.453 0 2.634-1.184 2.634-2.61 0-.972-.333-1.761-.848-2.246-.343-.284-.777-.425-1.302-.425Z" fill="#932424"/><path d="M728.833 319.312h-8.298a.271.271 0 0 1-.272-.273c0-.121.121-.243.272-.243h8.298c.121 0 .242.122.242.243 0 .152-.121.273-.242.273ZM730.437 320.344H718.9c-.121 0-.242-.121-.242-.243 0-.151.121-.242.242-.242h11.537c.152 0 .243.091.243.242a.24.24 0 0 1-.243.243ZM733.193 329.055h-17.018c-.151 0-.273-.122-.273-.304 0-.152.122-.273.273-.273h17.018c.151 0 .272.121.272.273 0 .182-.121.304-.272.304ZM733.193 330.481h-17.018a.272.272 0 0 1-.273-.273c0-.182.122-.303.273-.303h17.018c.151 0 .272.121.272.303a.271.271 0 0 1-.272.273ZM733.193 331.726h-17.018a.273.273 0 0 1-.273-.274c0-.151.122-.303.273-.303h17.018c.151 0 .272.152.272.303a.272.272 0 0 1-.272.274ZM733.193 333.122h-17.018c-.151 0-.273-.152-.273-.304s.122-.273.273-.273h17.018c.151 0 .272.121.272.273 0 .152-.121.304-.272.304Z" fill="#1C468A"/><path fill-rule="evenodd" clip-rule="evenodd" d="M734.737 341.407a9.273 9.273 0 0 1-1.362.971c-.182.122-.394.213-.576.304v.03c-.101.304-.212.597-.333.88 0 .061-.091.091-.151.061-.182-.121-.242-.364-.182-.577.061-.242.273-.394.485-.516.06-.151.091-.303.121-.455.03-.121.06-.212-.03-.303l-.182-.091c-.061-.031-.152-.091-.182-.152h-.03c-.091.03-.182-.03-.242-.091a19.04 19.04 0 0 1-.424.637c.02.061.03.111.03.152.03.243-.273.364-.424.182-.03-.03-.03-.091 0-.121a.797.797 0 0 0 .151-.213.349.349 0 0 0-.09-.06l-.061-.061c.02.02.02.04 0 .061-.091.424-.273 1.001-.727 1.122-.484.122-.636-.364-.666-.758-.03-.456-.121-1.063.121-1.518.061-.121.212-.243.364-.152.151.091.09.425.09.577-.03.152-.242.122-.212 0 0-.091.031-.212 0-.273-.03-.152-.09-.03-.121.061-.03.151-.06.303-.06.455 0 .303 0 .637.03.941.03.121.03.303.121.394.152.152.394.061.515-.091.151-.151.242-.364.303-.576-.061-.031-.091-.091-.031-.152.061-.101.112-.192.152-.273a.38.38 0 0 1-.061-.213.433.433 0 0 1 .273-.485c.06-.031.151.03.151.091-.02.202-.06.394-.121.576l.121.122c0 .02.01.04.031.06l.423-.667c-.02-.02-.03-.041-.03-.061-.06-.182-.091-.425.03-.577.122-.151.303-.182.455-.06.03.03.06.06.06.121-.101.182-.202.374-.303.577.021.02.041.03.061.03.02-.02.03-.04.03-.061.061-.151.273-.182.333-.03a.236.236 0 0 1-.06.243l.121.061c.151.091.333.182.333.394 0 .152-.03.304-.091.486.606-.364 1.181-.729 1.726-1.184.091-.061.242.091.121.182Zm-2.664-.394c.06-.102.111-.193.151-.274-.091-.03-.151.152-.151.213v.061Zm.454 1.851c-.152.152-.273.364-.182.516.061-.162.121-.334.182-.516Z" fill="#1C468A"/><path fill-rule="evenodd" clip-rule="evenodd" d="M738.432 352.849h-27.284v-36.936h27.284v36.936Zm-26.981-.303h26.648v-36.299h-26.648v36.299Z" fill="#1C468A"/><path d="M732.133 310.723c1.211-.06 2.948 1.214 5.209 3.824h-3.453c-1.029 0-6.359 3.157-8.327 2.459-1.312-.486-.141-2.307 3.513-5.463.848-.486 1.867-.759 3.058-.82Z" fill="#FFB27D"/><path d="m697.764 303.166-6.934 55.662a20.08 20.08 0 0 1-1.696-.395l-7.904-3.065h-.03c1.635-1.679 3.553-5.443 5.754-11.29 2.2-5.848 5.803-19.485 10.81-40.912Z" fill="#233862"/><path d="M868.974 365.991c1.958 4.208 2.887 6.889 2.786 8.042-.121 1.154-1.05 3.551-2.786 7.193l-3.119-14.507 3.119-.728Z" fill="#FFB27D"/><path d="m866.703 338.858 2.271 27.133-3.119.728-8.327-24.614 9.175-3.247Z" fill="#FFB27D"/><path d="m798.994 251.662 31.281-18.513 21.469 15.084-29.766 17.39-22.984-13.961Z" fill="#233862"/><path d="M841.176 251.875c3.19 3.884 5.622 7.709 7.298 11.472 2.483 5.645-4.543 9.833.787 16.268 5.299 6.403 7.479 14.871 4.36 18.938-3.118 4.067-31.825 2.124-44.361 4.856-12.537 2.731-12.658-6.404-11.719-11.442.938-5.008 6.086-6.707 5.148-14.295-.939-7.557 2.816-8.225 7.206-10.592 2.907-1.558 4.623-3.854 5.148-6.889 3.674-8.154 12.385-10.926 26.133-8.316Z" fill="#132644"/><path d="m831.789 468.422-.243 17.815-6.328.031-4.24-17.846h10.811ZM883.782 466.813l7.237 13.415-4.694 6.04-12.021-17.087 9.478-2.368ZM837.633 288.416c.03.03-.787 19.879-4.179 19.94-.696 0-5.965-13.931-6.631-14.113-3.634-.971-4.149-9.894-4.089-9.894 1.545-.334 1.969-2.428 1.939-11.533l.696.122 11.689 2.337a125.64 125.64 0 0 0-.273 7.162c0 2.914.182 5.676.848 5.979Z" fill="#FFB27D"/><path d="m790.394 268.506-.393-.819c8.509-4.067 8.963-13.657 8.963-15.873 0-.273.151-.516.424-.637.242-.122.545.06.545.364-.03 2.58-.666 12.716-9.539 16.965Z" fill="#EFCBAB"/><path d="m790.394 268.506-.908.759-.666-1.396 1.181-.182.393.819Z" fill="#D8A987"/><path d="M789.486 269.265c-.343.283-.959.486-1.847.607-.424-.182-.697-.738-.818-1.669.283.263.949.152 1.999-.334l.666 1.396Z" fill="#EFCBAB"/><path d="M837.058 275.274a124.795 124.795 0 0 0-.273 7.163c-6.541-.182-9.993-6.191-11.416-9.499l11.689 2.336Z" fill="#EF9E67"/><path d="M822.977 273.362c-2.968-3.095-5.027-6.11-6.177-9.044-1.212-3.126-1.999-15.509 10.447-16.207 2.382-.243 4.824.152 7.328 1.184 2.967 1.244 7.509 4.31 5.39 15.691l-.364 3.763-16.624 4.613Z" fill="#132644"/><path d="M889.899 476.343c-2.08.344-3.967.587-5.663.729-.575.03-1.12.06-1.575.06-1.241 0-3.452-.455-4.936-.819l-.121-.03a32.41 32.41 0 0 0-1.332-.304l-.061-.03c-10.336-11.533-18.401-26.536-24.194-45.009a44.577 44.577 0 0 0-.667-1.973c-4.754-13.9-14.625-31.352-19.803-47.164a245.848 245.848 0 0 1-2.241-7.132 48.201 48.201 0 0 1-.606-2.094c-3.846-13.354-4.966-22.126-5.965-31.473l31.25 7.982c8.741 37.998 20.712 80.417 35.914 127.257Z" fill="#A53D38"/><path d="M839.117 277.126c-10.094 2.205-15.777.152-17.048-6.161-1.908-9.469-5.148-15.418 4.421-17.937 9.568-2.519 12.203.698 13.596 3.703 1.423 3.004 2.907 19.272-.969 20.395Z" fill="#FFB27D"/><path d="M833.363 251.389c-1.292 7.972-3.946 12.929-7.964 14.872-4.037 1.962-7.095 2.559-9.175 1.79 2.746-3.257 3.997-7.223 3.755-11.897 6.117-6.293 10.578-7.881 13.384-4.765Z" fill="#132644"/><path d="M838.572 251.541c2.927 2.387 3.856 6.313 2.786 11.776-.182-3.642-2.756-4.431-3.997-6.708-.828-1.497-2.443-2.873-4.845-4.127.948-3.137 2.967-3.45 6.056-.941Z" fill="#132644"/><path d="M831.547 486.237a938.941 938.941 0 0 1 1.544 7.922c.515 2.913-.636 3.368-5.269 3.277-3.109-.06-4.32-1.669-3.634-4.825.888-2.529 1.161-4.978.818-7.345l6.541.971ZM902.253 496.496l-3.361.455-14.262-13.445 6.389-3.278c1.756 3.237 5.491 8.043 11.204 14.416l.03 1.852Z" fill="#FFB27D"/><path d="M907.704 500.229c-6.157 0-9.761-.051-10.811-.152-1.574-.182-2.846-2.489-4.572-5.918-.697-1.396-2.271-2.186-3.876-2.61v7.951h-2.453l-2.301-8.437c-1.514-2.792-.121-5.342.939-7.557 1.241 0 4.602.85 10.931 8.012 2.089 2.367 4.391 3.187 6.662 3.126l.121.061c3.513 1.578 5.299 3.419 5.36 5.524Z" fill="#C45446"/><path d="M884.236 477.072c-.575.03-1.12.06-1.575.06-1.241 0-3.452-.455-4.935-.819l-.122-.03-1.332-.304-.061-.03c-10.336-11.533-18.4-26.536-24.194-45.009a45.883 45.883 0 0 0-.666-1.973c-4.755-13.9-14.626-31.352-19.804-47.164a245.848 245.848 0 0 1-2.241-7.132 48.649 48.649 0 0 1-.606-2.095l5.511-4.218c11.063 17.947 18.31 35.378 21.742 52.293 4.24 21.002 22.59 48.226 28.283 56.421Z" fill="#912F2F"/><path d="M834.787 422.988c.091 12.352-.515 40.669-2.12 52.414-1.009.891-2.776 1.346-5.299 1.366-2.564 0-4.421-.475-5.572-1.426-4.027-20.395-6.874-37.27-8.963-51.808-1.696-11.927-3.21-22.186-4.391-30.987-.687-5.2 1.151-14.851 5.511-28.954l24.528-2.398c-.424 21.61-3.755 54.63-3.694 61.793Z" fill="#A53D38"/><path d="M827.368 476.768c-2.181.122-4.038-.354-5.572-1.426-4.028-20.395-6.874-37.27-8.963-51.808-1.696-11.927-3.21-22.186-4.391-30.987-.687-5.2 1.151-14.851 5.511-28.954l8.297 5.342c-7.853 7.162-10.81 17.522-8.872 31.078 2.876 20.335 9.962 73.872 13.99 76.755Z" fill="#912F2F"/><path d="M866.007 346.567c-1.514.516-3.241.819-4.967 1.092-2.695.395-5.359.638-7.055 1.427-3.351 1.517-9.074-20.153-17.169-65.01 5.894.061 10.194 2.226 12.899 6.495 4.058 6.434 19.865 38.119 21.288 48.287.636 4.552-1.726 6.616-4.996 7.709Z" fill="#1C468A"/><path d="M884.236 437.313c-.545 1.356-1.564 2.985-3.058 4.887-1.091 1.426-2.574 3.065-4.452 4.734-4.966 4.401-12.9 9.166-25.133 11.533-.646.142-1.302.263-1.968.364a145.648 145.648 0 0 1-10.629 1.366 140.65 140.65 0 0 1-18.26.364 113.597 113.597 0 0 1-9.417-.789c-3.997-.485-7.137-1.042-9.418-1.669 0-40.527 1.676-72.83 5.027-96.908 1.837-13.313 5.854-38.928 12.052-76.846l4.603-.698 11.052 24.705 2.181-24.28 5.026 1.609c2.483.789 4.361 2.822 4.997 5.341l37.397 146.287Z" fill="#1C468A"/><path d="m848.565 343.926-25.679-2.61 4.179-37.27 25.678 2.61-4.178 37.27Z" fill="#BC3F3F"/><path d="m822.886 341.316-1.332-.152 3.846-37.239 1.665.121-4.179 37.27Z" fill="#9B2323"/><path d="M805.535 323.258c12.012 3.682 23.761 6.343 35.247 7.982 3.775 1.639 4.775 2.681 2.998 3.126-.666.182-35.156 7.709-40.274 2.822l2.029-13.93Z" fill="#FFB27D"/><path d="M820.04 326.809c-3.24 9.378-13.597 25.342-20.319 15.175-5.632-8.498.878-45.343 8.055-53.993 1.514-1.821 6.763-3.267 15.746-4.34.939 8.832-1.817 38.272-3.482 43.158Z" fill="#1C468A"/><path d="M839.087 330.997c1.413-.142 2.251-.435 2.513-.88.787-1.366 2.059-1.335 3.119-1.518 1.06-.182 2.271-1.335 2.483-1.122.212.242-.787 1.517-1.332 2.003.747.04 1.372-.061 1.877-.304.757-.334 3.392-3.369 3.392-2.064.03 3.126-.212 3.612-2.877 5.827-1.474 1.214-4.694 2.054-9.66 2.52l.485-4.462Z" fill="#FFB27D"/><path d="m823.492 322.438-.515 5.281a17.395 17.395 0 0 1-2.937-.91c-4.926-1.983-6.42-7.881-4.482-17.694 1.151 5.888 4.875 10.44 7.934 13.323Z" fill="#233862"/><path d="M841.176 251.875c-7.288-2.772-15.999 0-26.133 8.316l.333-2.853c.273-2.55 1.575-4.887 3.634-6.404 2.301-1.73 5.996-3.612 11.537-4.401a10.315 10.315 0 0 1 9.842 4.219l.787 1.123Z" fill="#1C468A"/><path d="M866.007 346.567c-1.514.516-3.24.819-4.967 1.092l-7.085-31.382c7.954 16.066 11.971 26.162 12.052 30.29Z" fill="#233862"/><path d="M839.934 271.117c-.343.95-.575 1.507-.696 1.669-.182.212-2.786.485-3.815.485-.687 0-1.262-.455-1.726-1.365 1.291-.587 3.371-.85 6.237-.789Z" fill="#fff"/><path d="M1185.5 311.816c-.74-1.072-1.55-1.942-2.42-2.61-1.3-.971-2.66-2.853-2.24-3.46.26-.405 1.69-1.558 4.27-3.46l2.06 5.129-1.67 4.401Z" fill="#FFB27D"/><path d="m1218.96 252.026 33.77-13.414 18.89 18.24-32.09 12.565-20.57-17.391Z" fill="#233862"/><path d="M1205.58 340.284c-4.2 1.943-10.89-7.547-20.08-28.468l1.61-4.795 13.44 17.329c5.31 9.712 6.99 15.024 5.03 15.934Z" fill="#FFB27D"/><path d="M1242.58 267.899c-4.38 2.59-5.22 6.384-2.54 11.382-3.84-.708-6.17-1.639-6.99-2.792.1.485.22.849.36 1.092-4.48-.566-7.14-1.689-7.97-3.369-2.57-5.19 3.64-4.856 6.33-10.258 3.52-7.011 9-12.535 16.78-8.68 7.25-.385 9.24 4.077 5.96 13.384-3.27 9.308-3.36 14.376-.27 15.206-.97.202-1.66.242-2.09.121-.54-.384-.82-.769-.84-1.153-.02.566.02.961.12 1.183-3.44-.586-5.82-1.73-7.15-3.429-2-2.55-3.21-9.925-1.7-12.687Z" fill="#C94C43"/><path d="M1249.03 285.776c.22 1.73.43 3.277.55 4.036.06.516 1.27 9.955-.94 10.076-2.18.091-7.6 11.26-10.02 11.169-2.73-.091-5.15-20.668-5.51-20.668.69-.304 2.81-7.072 3.51-9.652.54-2.104 1.03-4.279 1.45-6.525l11.09.698.66.031c-.42 1.517-.73 2.944-.91 4.279-.02.182-.05.364-.09.546-.18 1.457 0 3.885.21 6.01Z" fill="#FFB27D"/><path d="M1236.53 273.089c-1.19-3.804-1.67-7.172-1.43-10.106.25-3.126 5.24-11.989 15.9-7.436 1.76-.425 3.46.314 5.12 2.216 1.97 2.276 4.51 6.707-1.91 15.357l-1.88 2.974-15.8-3.005Z" fill="#C94C43"/><path d="M1249.03 285.776c-5.16-1.518-8.84-5.271-11.02-11.26 3.27.091 7.54 2.397 10.9 4.704-.02.182-.05.364-.09.546-.18 1.457 0 3.885.21 6.01Z" fill="#ED975D"/><path d="M1249.61 282.619c-9.35-2.306-13.25-6.363-11.72-12.17 2.27-8.711 2-15.023 11.05-13.172 9.06 1.821 9.91 5.615 9.84 8.71-.06 3.096-5.48 17.33-9.17 16.632Z" fill="#FFB27D"/><path d="M1255.36 258.734c-4.36 6.13-8.62 9.186-12.78 9.165-4.17-.04-6.97-.809-8.38-2.306 3.61-1.578 6.28-4.371 8.02-8.377 7.69-2.731 12.07-2.225 13.14 1.518Z" fill="#C94C43"/><path d="M1259.66 261.04c1.46 3.197.61 6.849-2.54 10.957-1.36-.182-.45-4.826-.58-7.254-.06-1.598-.84-3.409-2.36-5.433 2.1-2.225 3.93-1.649 5.48 1.73Z" fill="#C94C43"/><path d="M1254.64 259.796c-3.7 6.657-8.32 10.471-13.87 11.442 6.09-3.075 9.97-6.91 11.63-11.503 1.67-4.593 2.42-4.572 2.24.061Z" fill="#C94C43"/><path d="M1252.82 278.249c-.57.688-.93 1.082-1.09 1.183-.21.122-2.45-.424-3.3-.758-.57-.203-.91-.749-1.03-1.639 1.25-.101 3.06.303 5.42 1.214Z" fill="#fff"/><path d="M1242.19 410.302c-.18.748-.36 1.487-.54 2.215-1.06 4.401-2.03 8.468-2.67 11.897-.79 4.432-1 7.74.06 9.136 2.73 3.581 2.03 22.732 1.15 36.541-.36 5.483-.74 10.329-1.15 14.538l-4.93 5.129c-1.05-5.443-2.23-11.462-3.55-18.058-2.66-13.294-6.05-29.743-7.42-33.78-1.06-3.187-2.6-16.814-3.96-30.714-.06-.708-.13-1.406-.21-2.094-.22-2.428-.46-4.856-.67-7.223-.83-8.782-.65-17.3.54-25.555 4.3-3.541 9.22-5.554 14.75-6.04 4.88-.425 9.48 1.123 11.75 7.163 3.3 8.741-.06 23.855-3.15 36.845Z" fill="#FFB27D"/><path d="M1242.19 410.302c-6.78-4.917-16.35-13.658-19.8-27.983-.67-7.132 4.93-13.9 11.2-16.025 4.88-.425 9.48 1.123 11.75 7.163 3.3 8.741-.06 23.855-3.15 36.845Z" fill="#ED975D"/><path d="m1266.93 323.774 33.34 8.619v3.915c-22.13-.263-33.9-1.629-35.34-4.097-1.41-2.468-.74-5.281 2-8.437ZM1300.27 452.397l-1.57 6.434c-4.59-2.367-9.8-5.089-15.63-8.164-13.63-7.193-31.73-16.935-35.31-19.667-2.33-1.79-5.42-11.593-8.29-22.641-2.85-11.007-5.54-22.954-8.06-35.843 4.22-16.247 11.97-19.404 23.26-9.469 10.14 8.923 8.57 26.131 7.45 39.515-.73 8.984-1.28 16.238 2.08 18.119 4.82 2.701 16.51 12.535 24.78 22.186 2.96 3.46 5.48 6.89 7.08 9.955l4.21-.425ZM1300.27 332.393c4.08-2.003 6.92-3.106 8.54-3.308 2.42-.273 6.51-.394 6.51 0 0 .395-4.36 3.126-5.54 3.308-1.15.213-3.39 1.852-2.73 2.064.7.182 4.3-.637 4.33 0 .06.637-2.18 1.032-2.57 1.517-.39.486-1.76 1.063-3.94.759a73.838 73.838 0 0 0-4.6-.425v-3.915Z" fill="#FFB27D"/><path d="M1300.27 424.293c-14.35 20.699-40.05 32.211-77.1 34.538-8.99-32.99-5.3-116.392-3.24-147.41-.12-5.402.09-9.985.97-11.745 1.37-2.762 8.88-7.527 11.57-9.864.42-.182.82-.283 1.18-.303.39 1.426 5.39 18.452 5.91 18.088.48-.364 8.93-16.54 9.81-18.453.91.031 1.54.061 1.72.061 1.49.091 9.51 1.7 10.18 3.005.24.455 2.54 6.555 5.45 14.689 5.42 15.236 13.38 12.353 16.56 16.875 2 2.822 1.12 8.103-2.54 12.686-.32.385-.66.759-1 1.123-2.82 2.974-6.63 4.735-12.81 3.824-1.54-.212-4.66-1.699-7.21-3.915 4.06 15.296 17.58 44.23 40.55 86.801Z" fill="#1C468A"/><path d="m1239.56 307.597 9.81-19.333 2.42 1.032c-7.95 15.641-12.06 23.491-12.32 23.552-.27.061-3.05-7.426-8.36-22.459l2.9-1.669 5.55 18.877Z" fill="#F99746"/><path d="M1258.85 259.614c-6.81-3.824-15.83-2.377-27.08 4.34l.73-2.762a9.217 9.217 0 0 1 4.54-5.797c2.55-1.335 6.48-2.671 12.05-2.64 3.85.03 7.36 2.215 9.12 5.645l.64 1.214Z" fill="#1C468A"/><path d="m1208 266.959-.27-.85c9.05-2.671 10.99-12.08 11.33-14.265a.643.643 0 0 1 .51-.576c.27-.091.52.151.48.425-.42 2.549-2.63 12.473-12.05 15.266Z" fill="#EFCBAB"/><path d="m1208 266.959-1 .607-.45-1.457h1.18l.27.85Z" fill="#D8A987"/><path d="M1207 267.566c-.38.242-1.03.354-1.93.333-.39-.242-.57-.839-.55-1.79.24.324.92.324 2.03 0l.45 1.457Z" fill="#EFCBAB"/><path d="M1234.62 290.753c1.78 3.258 6.2 3.399 13.26.425l-8.32 16.419-4.94-16.844Z" fill="#fff"/><path d="M1231.11 290.389c-.93 31.139-5.23 49.723-12.9 55.753a7.017 7.017 0 0 1-2.58 1.335c-5.81 1.487-10.02-2.003-12.87-6.798-3.99-6.677-5.33-15.934-4.66-18.058 1.3-4.067 4.24 3.126 10.45 1.153 6.21-1.973 7.87-27.012 12.2-30.654.75-.627 4.2-1.537 10.36-2.731Z" fill="#1C468A"/><path d="M1175 323.622a29.48 29.48 0 0 1-3.37-2.155c-.75-.546-1.51-1.153-2.05-1.76-.31-.364-.55-.698-.7-1.032 9.35-11.27 14.39-17.573 15.14-18.908.75-1.335 4.65-7.476 11.72-18.422.85.404 1.8.95 2.85 1.638.57.365 1.18.79 1.78 1.275 1.09.88 2.12 1.912 2.76 3.035-10.28 10.441-15.78 16.409-16.51 17.907-.72 1.517-4.6 7.658-11.62 18.422Z" fill="#EFCBAB"/><path d="M1171.63 321.467c-.75-.546-1.51-1.153-2.05-1.76-.31-.364-.55-.698-.7-1.032 9.35-11.27 14.39-17.573 15.14-18.908.75-1.335 4.65-7.476 11.72-18.422.85.404 1.8.95 2.85 1.638.57.365 1.18.79 1.78 1.275-4.33 4.431-16.02 16.48-17.02 18.574-.97 2.003-8.57 13.779-11.72 18.635Z" fill="#DDB08E"/><path d="M1190.77 300.253c-.8 1.821-2.47 3.975-4.99 6.464l-4.33-3.49c.32-1.821 1.85-4.077 4.6-6.768l4.72 3.794Z" fill="#C94C43"/><path d="M1185.5 310.359c-1.48-.91-.93-5.797-.57-6.859.36-1.032 0-3.217.57-3.49.58-.273.64 2.367 1.28 3.338.42.628.53 1.852.33 3.673-.08 2.852-.62 3.965-1.61 3.338ZM1180.33 304.805c-1.19-.728-.4-2.61.24-3.763.4-.749 1.18-1.042 2.33-.88-.93 3.581-1.79 5.129-2.57 4.643Z" fill="#FFB27D"/><path d="M1240.19 470.091c-.36 5.483-.74 10.329-1.15 14.538l-4.93 5.129c-1.05-5.443-2.24-11.462-3.55-18.058 3.7 1.295 6.91.758 9.63-1.609Z" fill="#fff"/><path d="m1244.04 492.004-2.7 1.457c-.97.364-1.75.455-2.75.819-1.49.577-2.55 1.7-2.58 1.912-.5 2.044-1.11 3.005-1.81 2.883l-10.75.091c-.52-.242.36-2.427.75-2.822 1.03-1.002 4.06-.516 5.18-3.642.41-1.194 1.64-3.622 3.7-7.284l.03-.03c.09-.031.66-.152 3.75.485 1.07.223 1.83-.748 2.27-2.913.35.06.71.222 1.09.485.43.334.91.82 1.18 1.609.37 1.123 1.94 2.731 3.09 3.794.47.424.87.778 1.21 1.062.31.384-.25 1.082-1.66 2.094Z" fill="#233862"/><path d="m1300.27 452.397-1.57 6.434c-4.59-2.367-9.8-5.088-15.63-8.164 3.39-2.155 5.09-5.372 5.9-7.8 2.97 3.46 5.49 6.89 7.09 9.955l4.21-.425Z" fill="#fff"/><path d="M1315.65 466.085c-.24.516-1.33.789-2.18.911a1.833 1.833 0 0 1-1.54-.486c-1.03-1.002-2.7-3.156-5.88-4.188-1.19-.365-3.64-1.528-7.35-3.491v-.03c-.07-.091-.22-.668.36-3.794.18-1.072-.82-1.801-3-2.185.06-.344.22-.698.49-1.062.3-.455.78-.941 1.57-1.245 1.09-.424 2.66-2.033 3.66-3.217.41-.465.75-.88 1.03-1.244.39-.324 1.1.212 2.15 1.609l1.55 2.64c.36.971.48 1.76.88 2.731.6 1.488 1.54 1.791 1.75 1.852h.03l6.48 11.199ZM1238.95 323.622a1.609 1.609 0 1 0 0-3.217c-.89 0-1.6.72-1.6 1.609a1.6 1.6 0 0 0 1.6 1.608ZM1238.95 335.61a1.609 1.609 0 1 0 0-3.217c-.89 0-1.6.72-1.6 1.609a1.6 1.6 0 0 0 1.6 1.608ZM1280.74 336.46c-.32.385-.66.759-1 1.123-2.82 2.974-6.63 4.735-12.81 3.824-1.54-.212-4.66-1.699-7.21-3.915-3.41-9.328-4.88-14.649-4.42-15.964.7-1.973 10.54 13.354 18.69 14.082 3.21.273 5.36.547 6.75.85ZM1220.66 325.564l-2.45 20.578a7.017 7.017 0 0 1-2.58 1.335c-5.81 1.487-10.02-2.003-12.87-6.798 2.97.425 10.18 1.062 11.75-2.094 1.34-2.651 3.39-6.991 6.15-13.021Z" fill="#233862"/><path d="M1078.4 209.081c.42-2.276 2.21-2.246 3.03-2.671.78-.455 1.18-2.64 1.39-3.611.14-.628.5-.84 1.09-.638 0 2.003.09 5.069-.64 6.92-.46 1.214-1.65 2.691-3.57 4.431-1.15-1.436-1.58-2.913-1.3-4.431Z" fill="#B56F40"/><path d="M1073.07 213.967c-1.76-3.601-2.45-5.989-2.09-7.162.52-1.76 8.6-3.672 9.66-2.853.73.546.73 4.188 0 10.926l-7.57-.911ZM1163.28 374.398c.99 1.719 1.72 2.974 2.21 3.763.69 1.153 2.45 10.319 1.54 11.29-.91.971-2.27-.971-2.87-2.185-.64-1.244-1.91-5.16-2.34-5.251-.45-.06.88 3.309.37 4.28-.52.971-1.33-.971-2.88-3.096-1.05-1.436-1.44-3.632-1.18-6.586l5.15-2.215Z" fill="#B56F40"/><path d="m1102.56 242.254 30.77-17.33 20.65 25.676-28.16 13.688-23.26-22.034Z" fill="#233862"/><path d="m1117.92 248.142 12.5-.607 8.69 6.646c-.2 2.853-.39 5.423-.57 7.709-.16 2.287-1.21 3.844-3.15 4.674l-19.9-2.276c-1.89-1.68-2.61-3.177-2.15-4.492.73-1.973-2.12-4.613-.33-5.615 1.21-.647 2.03-1.892 2.45-3.733l2.46-2.306Z" fill="#C94C43"/><path d="M1048.69 217.215a35.913 35.913 0 0 1-1.54-4.492c-.3-1.092-.55-2.215-.61-3.187-.03-.546 0-1.062.09-1.487 17.08-3.52 26.46-5.625 28.14-6.313 1.67-.687 9.86-3.5 24.55-8.437.51 1.032.99 2.246 1.46 3.642.27.789.51 1.639.72 2.519.37 1.639.55 3.399.31 4.887-17.3 2.063-26.85 3.53-28.65 4.4-1.8.85-9.95 3.673-24.47 8.468Z" fill="#EFCBAB"/><path d="M1047.15 212.723c-.3-1.092-.55-2.215-.61-3.187-.03-.546 0-1.062.09-1.487 17.08-3.52 26.46-5.625 28.14-6.313 1.67-.687 9.86-3.5 24.55-8.437.51 1.032.99 2.246 1.46 3.642.27.789.51 1.639.72 2.519-7.32.911-27.16 3.43-29.61 4.613-2.39 1.154-18.2 6.465-24.74 8.65Z" fill="#DDB08E"/><path d="M1080.7 207.199c-2.1 1.113-5.25 1.882-9.45 2.307l-1.45-6.464c1.65-1.477 4.76-2.428 9.33-2.853l1.57 7.01Z" fill="#C94C43"/><path d="M1085.33 499.166c0-2.751.21-4.582.61-5.493.38-.91 1.29-3.227 2.72-6.95h8.39c1.05 3.399 1.61 5.655 1.67 6.768.08 1.093.08 2.984 0 5.675h-13.39ZM1125.3 499.166c-.06-2.691-.06-4.582 0-5.675.07-1.113.62-3.369 1.67-6.768h8.42c1.43 3.723 2.34 6.04 2.72 6.95.39.911.58 2.742.58 5.493h-13.39Z" fill="#233862"/><path d="M1132.66 265.957c-1.31 2.853-1.76 8.468-1.36 16.844l6.48 12.656-19.5 17.664-14.23-28.165 10.17-4.977c1.17-2.59 2.32-6.9 3.45-12.929 11.33-3.602 16.33-3.966 14.99-1.093Z" fill="#B56F40"/><path d="M1131.54 270.965c-1.37 3.763-3.78 5.422-7.23 4.977-5.15-.637-6.88-7.648-6.88-7.648l14.11 2.671Z" fill="#99592E"/><path d="M1124.12 273.302c-3.72-.638-9.81-6.647-8.87-12.808l1.49-9.621c.33-2.246 2.18-3.854 4.08-3.551l14.24 2.185c1.9.304 3.18 2.398 2.84 4.644l-1.39 9.044c-1 6.465-8.12 10.866-12.39 10.107Z" fill="#B56F40"/><path d="M1117.73 358.342c-6.09 37.412-9.12 60.316-9.08 68.713.02 7.871-2.76 28.337-8.33 61.398-5.06 2.59-9.95 2.59-14.65 0-1.44-23.815-1.44-44.281 0-61.398 2.18-26.01.69-71.808.72-70.685l31.34 1.972Z" fill="#F99746"/><path d="M1138.39 488.453c-4.69 2.59-9.57 2.59-14.66 0-5.57-33.061-8.34-53.527-8.3-61.398.03-5.311-1.6-18.392-3.48-31.746-1.69-12.16-3.56-24.483-5.6-36.967l32.55-2.063c-1.8 30.066-1.96 53.658-.48 70.776 1.45 17.117 1.44 37.583-.03 61.398Z" fill="#F99746"/><path fill-rule="evenodd" clip-rule="evenodd" d="M1121.07 261.131c-1.4-.212-4.12-.94-4.24-3.429-.03-.759.21-1.396.69-1.821.55-.486 1.34-.698 2.18-.546l4.24.637c.83.121 1.36.445 1.61.971.39.85-.18 1.942-.46 2.398-.91 1.487-1.94 2.064-3.24 1.881-.06 0-.36-.03-.78-.091Zm-1.43-5.523c-.75-.122-1.45.06-1.94.485-.42.364-.6.911-.57 1.578.06 1.275.85 2.216 2.39 2.793 1.18.425 2.33.485 2.36.485 1.18.182 2.12-.394 2.97-1.76.18-.304.79-1.396.42-2.125-.2-.424-.65-.687-1.36-.789l-4.27-.667ZM1130.91 262.649c-.43-.061-.73-.122-.76-.152-1.3-.212-2.12-1.092-2.54-2.792-.12-.486-.34-1.7.3-2.398.38-.425.98-.576 1.79-.455l4.27.668c.84.121 1.54.576 1.9 1.183.34.547.37 1.245.12 1.943-.87 2.337-3.69 2.215-5.08 2.003Zm-1.24-5.493c-.71-.122-1.23-.011-1.55.333-.54.607-.3 1.821-.21 2.155.36 1.578 1.12 2.398 2.27 2.58h.03s1.15.303 2.39.243c1.64-.061 2.67-.729 3.12-1.912.21-.638.18-1.214-.09-1.7-.33-.546-.94-.941-1.69-1.062l-4.27-.637Z" fill="#2C3A64"/><path d="M1125 258.157c-.06 0-.12-.061-.15-.121 0-.091.03-.182.12-.213.09 0 1.88-.516 3.24.516.06.061.09.152.03.243-.06.061-.15.091-.24.03-1.24-.91-2.91-.455-2.94-.455h-.06Z" fill="#2C3A64"/><path d="M1130.94 284.804c.87 2.894-5.02 15.58-17.66 38.059-4.42-1.639-4.97-15.67-1.66-42.095l9.63 4.188 9.69-.152Z" fill="#fff"/><path d="m1120.91 284.956-2.36 3.855c-3.63-1.336-6.14-4.249-7.54-8.741.95-.891 2.33-1.498 4.15-1.821.87 3.055 2.79 5.291 5.75 6.707Z" fill="#D2E3FC"/><path d="M1120.91 284.956c5.98-.243 9.41-1.801 10.3-4.674 1.19 1.234 1.77 2.863 1.73 4.887-1.9 2.873-5.21 4.33-9.94 4.37l-2.09-4.583Z" fill="#D2E3FC"/><path d="M1121.67 266.564c3.17.142 5.46.496 6.88 1.062-.97 1.154-2.09 1.639-3.37 1.457-1.9-.303-3.24-1.214-3.51-2.519Z" fill="#FFF0E6"/><path d="M1087.91 252.512c-4.33 2.732-10.24 6.434-15.05 9.348-.24-.83-.42-1.568-.52-2.216-1.07-6.798-.82-22.024.73-45.677 1.07-.546 2.16-.859 3.27-.94 2.08-.182 3.51.435 4.3 1.851 3.65 20.8 6.08 33.345 7.27 37.634Z" fill="#B56F40"/><path d="m1164.49 375.885-3.27 1.365c-5.21 1.852-10.84-.667-12.54-5.948-2.3-7.102-2.54-14.75-3.39-21.063-.42-3.096-.91-9.5-2.78-14.477v-.03l3.27 110.292c-32.73 2.326-57.07-5.949-73.04-24.827-1.28-29.834 10.63-97.089 14.96-120.398-2.09-4.765-16.96-18.332-19.44-31.686-1.16-6.191 2.48-10.592 6.84-13.536 3.69-2.488 7.79-4.228 12.29-5.22l15.87 21.275c.67.759 1.15 1.366 1.33 1.73.81 1.68 3.33 3.895 7.57 6.647-.03.152.7 35.843 1.97 36.997 1.88-.698 14.42-25.828 17.17-34.205 4 1.093 8.3 2.58 12.84 4.583 5.71 3.076 8.98 11.29 9.81 24.644 1.03 16.996 11.39 38.666 13.72 58.394.3 2.337-1.03 4.552-3.18 5.463Z" fill="#1C468A"/><path d="m1112.89 280.009 1.73 34.417 17.41-31.625 3.03 1.123-22.05 38.15c-.97-5.766-1.85-20.193-2.63-43.279l2.51 1.214Z" fill="#C94C43"/><path d="m1120.91 284.956-2.36 3.035c-3.63-1.335-6.14-4.249-7.54-8.741.95-.89 2.33-1.497 4.15-1.821.87 3.056 2.79 5.565 5.75 7.527Z" fill="#fff"/><path d="M1120.91 284.956c5.98-.789 9.41-2.62 10.3-5.493 1.19 1.254 1.77 2.893 1.73 4.916-1.9 2.853-5.21 4.3-9.94 4.34l-2.09-3.763Z" fill="#fff"/><path d="M1109.41 327.416c.9 0 1.63-.734 1.63-1.639a1.635 1.635 0 1 0-3.27 0c0 .905.73 1.639 1.64 1.639ZM1106.35 342.105c.9 0 1.63-.733 1.63-1.639 0-.905-.73-1.639-1.63-1.639-.9 0-1.64.734-1.64 1.639 0 .906.74 1.639 1.64 1.639Z" fill="#233862"/><path d="M1102.41 242.314c.06-.242.37-.303.55-.121.15.182.21.425.12.637-.67 1.73-3.21 9.409 2.24 15.175l-.55.516c-5.69-6.009-3.15-14.173-2.36-16.207Z" fill="#EFCBAB"/><path d="m1105.32 258.005.88.486-.94.88-.49-.85.55-.516Z" fill="#D8A987"/><path d="M1106.2 258.491c.66.708 1.15.991 1.45.85-.36.708-.75 1.062-1.15 1.062-.65-.344-1.06-.688-1.24-1.032l.94-.88Z" fill="#EFCBAB"/><path d="m1117.92 248.142 13.62-1.821c6.95 4.957 9.09 7.941 6.42 8.953-2.66 1.032-5.22-.901-7.66-5.797-.08 1.295-1.71 1.619-4.9.971-.93.789-2.43.921-4.49.395-.74 1.295-2.39 1.851-4.93 1.669l1.94-4.37Z" fill="#C94C43"/><path d="M1119.25 243.225c10.39-3.035 16.02.789 18.35 2.731.85.668 1.33 1.67 1.36 2.732l.15 5.493c-8.66-5.018-16.54-6.262-23.65-3.733l.79-3.429c.33-1.457 1.55-3.369 3-3.794Z" fill="#1C468A"/><path d="M1069.74 205.045c-.03-.213-.73-1.7.21-3.035.97-1.366 7.27-3.46 7.87-2.368.58 1.123.22 4.947-1.81 5.767-2.03.85-6.12.485-6.27-.364Z" fill="#B56F40"/><path d="M1087.7 300.799c-2.09-4.765-16.96-18.332-19.44-31.686-1.16-6.191 2.48-10.592 6.84-13.536-1.35 6.232-.09 12.171 3.78 17.816 3.9 5.645 6.84 14.78 8.82 27.406ZM1161.22 377.25c-5.21 1.852-10.84-.667-12.54-5.948-2.3-7.102-2.54-14.75-3.39-21.063-.42-3.096-.91-9.5-2.79-14.477.19.273 5.85 9.226 10.91 23.703 5.14 14.72 3.54 16.875 7.81 17.785Z" fill="#233862"/><path d="M1360.53 498.924h-27.71c-1.48-1.245 1.03-4.128 3.67-4.31 1.12-.091 2.57.152 4.21.486.39-5.069 2.57-27.862 10.78-26.951 9.2 1.032 0 10.046-2.61 15.387-1.94 3.946-3.97 9.621-4.9 12.292.74.162 1.51.314 2.3.455 1.24-3.733 5.78-16.389 11.56-15.66 6.79.849 4.06 5.948-.75 8.953-3.55 2.215-7.88 5.342-9.93 6.889 1.75.274 3.57.456 5.42.425 4.75-.121 7.05 1.275 7.96 2.034ZM653.19 498.924c-1.09 0-21.469-21.185-22.832-15.631-.888 3.683 6.722 8.893 22.832 15.631Z" fill="#82B378"/><path d="M968.751 411.334c1.968-3.066-14.596-37.21-5.693-56.209.727-1.578 7.974-1.183 21.742 1.184 2.806 31.989 3.422 52.212 1.847 60.67-1.665 8.983-4.966 35.449-6.753 50.229v.152c-.424 3.49-.757 6.343-.969 8.103a8.75 8.75 0 0 0 .455 3.946c1.302 3.611 4.178 11.077 5.602 12.109-5.209 1.498-8.308 1.953-9.297 1.366-1.009-.587-2.786-5.473-5.329-14.659.666-1.305.908-2.762.666-4.188-.273-1.882-.727-4.826-1.242-8.438-6.722-27.315-5.723-46.89-1.029-54.265Z" fill="#FFB27D"/><path d="M924.631 472.58c1.09-.941 1.817-2.246 2.12-3.642.393-1.882.999-4.795 1.817-8.346 3.331-27.953 11.173-45.89 18.168-51.11 2.907-2.215-.545-40.001 14.475-54.63 1.251-1.214 7.893 1.72 19.925 8.802-8.64 30.916-15.201 50.057-19.683 57.422-4.724 7.8-17.109 31.412-23.983 44.614-1.665 3.187-3.028 5.767-3.845 7.345a9.062 9.062 0 0 0-.969 3.855c-.031 3.854-.545 14.143.969 15.053a16.27 16.27 0 0 1 2.422 1.791c-4.744-.405-7.409-.617-7.994-.638-.848-.06-6.299-17.178-6.42-17.511a55.356 55.356 0 0 1 2.998-3.005Z" fill="#FFB27D"/><path d="m922.875 484.993-5.602 8.103-.969-.698 1.786-10.501 4.785 3.096Z" fill="#233862"/><path d="M921.633 475.585c.121.333 5.572 17.451 6.42 17.511.585.021 3.25.233 7.994.638 2.453 2.246 3.089 4.643 1.423 5.22l-11.174-.03c-.969-2.307-1.877-13.02-7.994-16.238-1.726-.91.757-4.309 3.331-7.101Z" fill="#1C468A"/><path d="M929.052 444.081v-.03l9.145-28.651.212-.667 5.299 2.519 16.928 8.073 1.15.546-.757 3.764-2.331 11.32-3.513 17.057c-17.745 1.72-26.789-1.892-27.132-10.835l.999-3.096Z" fill="#F99746"/><path d="m929.052 444.051 9.145-28.651 5.511 1.852 16.928 8.073.393 4.31-2.331 11.32c-14.636-3.197-24.518-2.155-29.646 3.126v-.03Z" fill="#EF7E29"/><path d="M970.356 478.225c2.543 9.186 4.32 14.072 5.329 14.659.989.587 4.088.132 9.297-1.366 1.877 1.366 8.054 6.07 6.298 7.497l-14.111-.091c-1.726-1.821-5.451-8.438-8.842-10.016-2.483-1.153.363-7.466 2.029-10.683Z" fill="#1C468A"/><path d="m988.464 428.815 2.483.759c-.444.83-1.1 11.847-1.968 33.051-11.446 3.399-19.34 2.337-23.68-3.187l-3.513-38.514 26.678 7.891Z" fill="#F99746"/><path d="m988.464 428.815 1.484 13.597c-16.312-1.275-24.528 4.401-24.649 17.026l-3.513-38.514 26.678 7.891Z" fill="#EF7E29"/><path d="m969.902 258.521-34.097-13.354 20.076-19.393 35.884 14.264-21.863 18.483Z" fill="#233862"/><path d="M974.959 246.594c.04 2.853 1.11 4.724 3.209 5.615 6.511 2.761.303 5.978 6.693 10.501 1.453 1.032 2.513 7.496-7.631 8.467-6.763.628-10.568 1.235-11.416 1.821-5.007 3.217-10.296 3.167-15.868-.151-4.845-2.884 1.242-10.896-.969-12.96-2.997-2.762-3.391-11.776.969-15.509 2.907-2.468 6.672-4.431 11.295-5.888l13.718 8.104Z" fill="#132644"/><path d="M990.614 239.704c-.061-.303.212-.576.515-.485.303.091.515.334.545.607.363 2.337 2.422 12.352 12.026 15.205l-.28.88c-9.99-2.974-12.352-13.506-12.806-16.207Z" fill="#EFCBAB"/><path d="M1003.7 255.031h1.27l-.49 1.548-1.06-.668.28-.88Z" fill="#D8A987"/><path d="M1004.97 255.031c1.19.324 1.9.324 2.15 0 .02.991-.18 1.619-.61 1.882-.93.02-1.6-.091-2.03-.334l.49-1.548Z" fill="#EFCBAB"/><path d="M972.93 307.446c-4.361 1.487-13.385-28.165-13.142-28.317.484-.334 1.423-.819 1.514-2.58.09-1.76-.121-4.097-.788-6.859a39.507 39.507 0 0 0-1.514-4.977l.666-.091 8.328-1.366 3.119-.516a101.294 101.294 0 0 0 2.21 6.616c.969 2.641 3.119 4.371 3.816 4.462.394-.091-.424 32.353-4.209 33.628Z" fill="#FFB27D"/><path d="M960.514 269.69c1.908-2.671 4.724-5.341 7.48-6.434 1.09-.455 2.15-.637 3.119-.516-3.21 7.851-6.48 12.454-9.811 13.809.091-1.76-.121-4.097-.788-6.859Z" fill="#ED975D"/><path d="M949.946 253.635c.212-3.217 1.423-7.072 10.992-8.225 9.569-1.153 8.752 5.402 10.387 14.659 1.11 6.171-3.301 10.066-13.233 11.685-3.906.394-8.358-14.872-8.146-18.119ZM955.336 294.698c-21.116-7.567-32.714-13.758-34.793-18.574-2.099-4.815-2.241-17.815-.424-38.999l3.634-.547c0 4.037 4.36 31.989 6.147 34.083 1.191 1.417 10.154 4.644 26.89 9.682l-1.454 14.355Z" fill="#FFB27D"/><path d="m977.23 279.979-3.301 25.008-12.688-27.952c8.055 4.046 13.112 2.853 15.171-3.582l.818 6.526Z" fill="#F99746"/><path d="M986.647 276.306c-1.009 3.339 8.176 10.299 27.553 20.881l21.44-14.72 2.58 2.186c-13.71 16.551-21.63 24.644-23.77 24.28-2.14-.344-10.57-5.372-25.29-15.084l-2.513-17.543Z" fill="#FFB27D"/><path d="M928.053 351.696c4.845-14.507 9.841-24.28 9.841-35.024-27.758.405-30.422-14.932-7.994-46.011 11.234 4.613 31.341 6.374 31.341 6.374l12.476 23.157 2.695-26.739c.575-.06 12.839-.94 17.987 2.459 5.751 3.824 7.961 14.537 19.801 21.275.55.304 5.15 10.258 4.64 19.424-.37 5.979-2.88 11.594-10.09 14.022-3.3 1.123-11.323-.85-12.897-6.859.141.728.272 1.477.393 2.246 3.594 22.297 6.194 60.558 7.814 114.783-25.649 5.979-62.986-6.373-74.523-12.807-10.145-5.706-16.231-15.206-19.32-21.397-1.191-2.408-2.049-4.441-2.574-6.1 10.417-22.945 17.22-39.213 20.41-48.803Z" fill="#1C468A"/><path d="M961.332 264.986c-.101 1.011-.475 1.639-1.121 1.882-.938.394-3.482 1.092-3.724.94-.182-.101-.596-.536-1.242-1.305 2.645-1.092 4.674-1.598 6.087-1.517Z" fill="#fff"/><path d="M919.998 238.642c-3.997-8.65-2.332-11.138-1.484-11.654.848-.486 4.209 5.857 4.421 5.311.273-.637.606-3.187 1.06-3.217.394-.061.03 1.548.575 3.52.545 1.963.303 3.298-.726 4.007l-3.846 2.033ZM1035.64 282.468c1.54-3.622 2.56-5.797 3.06-6.526 1.48-2.215 5.78-3.611 6.06-2.64.27.971-2.76 2.428-2.88 4.704-.03.607 1.24-.607 2.03-1.062.48-.304.76-.061.51.303-1.24 1.821-1.93 3.733-3.15 4.431-.8.466-1.82 1.457-3.05 2.975l-2.58-2.185Z" fill="#FFB27D"/><path d="m979.743 273.332-4.694 36.542-18.259-33.325h4.512l12.415 23.643 2.695-26.738 3.331-.122Z" fill="#AA443E"/><path d="M968.115 244.378c4.694.395 13.294 25.13 8.025 26.769-6.662 2.094-11.174-3.672-9.388-9.044 1.212-3.612-.999-7.891-5.42-8.68-9.165-1.68-12.294-4.239-9.387-7.679 7.651-1.153 13.041-1.609 16.17-1.366Z" fill="#132644"/><path d="M956.79 246.928c-2.948 2.124-4.542 4.036-4.785 5.736-.393 2.519-1.423 6.161-3.119 3.611-1.665-2.579-1.968-6.07 0-8.407 1.969-2.336 6.39-3.399 7.329-2.61.625.547.817 1.103.575 1.67Z" fill="#132644"/><path d="M950.491 240.918c1.848-3.642 4.24-3.126 8.328-3.156 5.935-.061 10.114 1.366 12.809 2.822 2.392 1.275 3.24 1.245 3.936 3.885l-.242 4.431c-11.931-7.142-20.712-8.295-26.345-3.46l1.514-4.522Z" fill="#1C468A"/><path d="M1040.37 280.1c-1.4-1.416-9.91-5.989-25.53-13.718.27-1.518 1.03-3.096 1.94-4.522.48-.759 1-1.487 1.51-2.155.89-1.153 1.75-2.125 2.57-2.914 12.2 9.571 18.97 14.953 20.32 16.147 1.36 1.214 9.49 6.353 24.41 15.417-.03.425-.18.881-.39 1.396-.4.911-1 1.882-1.64 2.793a31.928 31.928 0 0 1-2.97 3.733c-12.07-9.368-18.81-14.761-20.22-16.177Z" fill="#EFCBAB"/><path d="M1043.12 276.124c-1.94-1.942-19.77-10.956-26.34-14.264.48-.759 1-1.487 1.51-2.155.89-1.153 1.75-2.125 2.57-2.914 12.2 9.571 18.97 14.953 20.32 16.147 1.36 1.214 9.49 6.353 24.41 15.417-.03.425-.18.88-.39 1.396-.4.911-1 1.882-1.64 2.793-5.42-4.219-18.56-14.538-20.44-16.42Z" fill="#DDB08E"/><path d="M1037.61 270.024c4.14 1.942 6.74 3.885 7.81 5.827l-3.51 5.615c-3.79-1.821-6.5-3.602-8.12-5.342l3.82-6.1Z" fill="#C94C43"/><path d="M1038.22 281.132c.09-.212-.31-1.062.75-1.244 1.06-.182 3.88-2.155 5.45-2.641 1.58-.485.31 1.427-.63 2.61-.63.769-1.47 1.376-2.52 1.821-2.07-.202-3.09-.384-3.05-.546Z" fill="#FFB27D"/><path d="M928.053 351.696c4.845-14.507 9.841-24.28 9.841-35.024 4.199 22.762 2.534 42.004-4.996 57.726-6.541 13.688-15.928 25.069-22.681 32.201-1.191-2.408-2.049-4.441-2.574-6.1 10.417-22.945 17.22-39.213 20.41-48.803ZM976.109 320.617a1.122 1.122 0 1 0-.001-2.243 1.122 1.122 0 0 0 .001 2.243ZM976.109 341.104a1.122 1.122 0 0 0 0-2.246c-.619 0-1.12.503-1.12 1.123s.501 1.123 1.12 1.123ZM991.765 307.506c.09.273 3.543 8.407 9.115 11.988 5.45 3.551 17.17-2.458 17.96-2.883-.37 5.979-2.88 11.594-10.09 14.022-3.3 1.123-11.323-.85-12.897-6.859.141.728.272 1.477.393 2.246l-4.481-18.514Z" fill="#233862"/><path d="M1231.56 218.641c-.94 1.063-3.06 2.519-4.39 2.823-2.91.708-6.12.101-9.63-1.821l2.06-4.006c.12.182 3 2.64 5.85 2.792 2.52.142 4.88-.617 7.08-2.276.04.89-.28 1.72-.97 2.488Z" fill="#6BB7BF"/><path d="m1232.08 208.019 5.51-2.58c-.14 7.83-3.38 13.091-9.72 15.782 3.81-5.544 5.22-9.945 4.21-13.202Z" fill="#86D1CD"/><path d="M645.741 325.716c-.939 1.062-3.059 2.489-4.391 2.823-2.907.708-6.117.101-9.629-1.821l2.059-4.006c.121.151 3.028 2.64 5.844 2.792 2.544.141 4.916-.617 7.116-2.276.02.89-.313 1.719-.999 2.488Z" fill="#6BB7BF"/><path d="m646.256 315.094 5.511-2.61c-.142 7.85-3.382 13.121-9.721 15.812 3.816-5.544 5.219-9.945 4.21-13.202Z" fill="#86D1CD"/><path d="M1095.63 136.605c8.56-1.517 13.92-.556 16.08 2.884l-6.6 2.853c-4.02-5.544-8.7-6.455-14.05-2.732-2.55-.991-1.02-1.993 4.57-3.005Z" fill="#5685D8"/><path d="M1083.15 145.073c1.46-6.03 7.67-9.044 18.66-9.044-4.12.384-7.79 3.257-11 8.619l-7.66.425Z" fill="#739AF0"/><path d="M1032.61 178.033c-1.55-.708-2.99-2.934-4.33-6.677.63-.931 2.38-1.477 5.24-1.639.33 2.266 1.96 4.33 4.91 6.192-.39 1.639-2.32 2.347-5.82 2.124ZM1326.49 414.429c-1.55-.688-2.99-2.903-4.33-6.646.63-.931 2.39-1.478 5.27-1.639.3 2.266 1.94 4.33 4.91 6.191-.41 1.639-2.35 2.337-5.85 2.094ZM602.893 406.599c-1.555-.708-2.998-2.934-4.33-6.677.625-.931 2.382-1.477 5.269-1.639.302 2.266 1.927 4.33 4.875 6.191-.384 1.639-2.322 2.348-5.814 2.125Z" fill="#ED7D2B"/><path d="M658.096 498.924c-8.52-23.43-15.767-34.144-21.742-32.141-5.976 1.983 1.271 12.696 21.742 32.141Z" fill="#82B378"/><path d="M443.462 222.307c16.098-2.847 26.177-1.044 30.24 5.41l-12.415 5.354c-7.555-10.403-16.363-12.111-26.424-5.126-4.783-1.86-1.917-3.739 8.599-5.638Z" fill="#5685D8"/><path d="M420 238.196c2.733-11.314 14.427-16.971 35.08-16.971-7.745.722-14.636 6.113-20.672 16.173l-14.408.798Z" fill="#739AF0"/><path d="M502.373 485.775c-14.991-43.98-27.744-64.091-38.259-60.331-10.515 3.722 2.238 23.833 38.259 60.331ZM493.741 485.775c-1.919 0-37.78-39.765-40.178-29.339-1.563 6.912 11.83 16.692 40.178 29.339Z" fill="#82B378"/><path d="M442 485.775c4.014-5.697 9.947-7.596 17.798-5.697 11.776 2.906 19.822-1.253 38.579-5.07 12.54-2.507 23.747 1.082 33.623 10.767h-90Z" fill="#82B378"/><path d="M428.3 107.4c-5.133-2.333-9.9-9.667-14.3-22 2.067-3.067 7.833-4.867 17.3-5.4 1.067 7.467 6.467 14.267 16.2 20.4-1.267 5.4-7.667 7.733-19.2 7Z" fill="#ED7D2B"/><path d="M62.935 489H.988c-3.317-2.747 2.302-9.113 8.192-9.515 2.505-.201 5.755.336 9.41 1.073.88-11.19 5.755-61.51 24.103-59.499 20.581 2.278 0 22.178-5.823 33.97-4.333 8.711-8.869 21.24-10.967 27.137 1.67.357 3.385.692 5.145 1.005 2.776-8.242 12.93-36.182 25.862-34.574 15.165 1.876 9.072 13.133-1.693 19.766-7.92 4.891-17.602 11.793-22.206 15.21 3.927.603 7.989 1.005 12.119.938 10.629-.268 15.774 2.814 17.805 4.489Z" fill="#82B378"/><path d="M380.462 326.307c16.098-2.847 26.177-1.044 30.24 5.41l-12.415 5.354c-7.555-10.403-16.363-12.111-26.424-5.126-4.783-1.86-1.917-3.739 8.599-5.638Z" fill="#5685D8"/><path d="M357 342.196c2.733-11.314 14.427-16.971 35.08-16.971-7.745.722-14.636 6.113-20.672 16.173l-14.408.798Z" fill="#739AF0"/><path d="M109.462 193.307c16.098-2.847 26.177-1.044 30.24 5.41l-12.415 5.354c-7.555-10.403-16.363-12.111-26.424-5.126-4.783-1.86-1.917-3.739 8.599-5.638Z" fill="#5685D8"/><path d="M86 209.196c2.734-11.314 14.427-16.971 35.08-16.971-7.745.722-14.636 6.113-20.672 16.173L86 209.196Z" fill="#739AF0"/><path d="M80.3 343.4c-5.133-2.333-9.9-9.667-14.3-22 2.067-3.067 7.833-4.867 17.3-5.4 1.067 7.467 6.467 14.267 16.2 20.4-1.267 5.4-7.667 7.733-19.2 7ZM346.3 414.4c-5.133-2.333-9.9-9.667-14.3-22 2.067-3.067 7.833-4.867 17.3-5.4 1.067 7.467 6.467 14.267 16.2 20.4-1.267 5.4-7.667 7.733-19.2 7Z" fill="#ED7D2B"/><path d="M26.522 271.975c-1.776 2.005-5.786 4.697-8.306 5.327-5.5 1.337-11.571.191-18.216-3.437l3.895-7.561c.23.287 5.728 4.984 11.056 5.27 4.811.267 9.299-1.165 13.461-4.296.038 1.68-.592 3.246-1.89 4.697Z" fill="#6BB7BF"/><path d="M27.496 251.926 37.92 247c-.267 14.817-6.396 24.765-18.388 29.844 7.218-10.463 9.872-18.769 7.963-24.918Z" fill="#86D1CD"/><path d="M152.522 380.975c-1.776 2.005-5.786 4.697-8.306 5.327-5.499 1.337-11.571.191-18.216-3.437l3.895-7.561c.229.287 5.728 4.984 11.056 5.27 4.811.267 9.299-1.165 13.461-4.296.038 1.68-.592 3.246-1.89 4.697Z" fill="#6BB7BF"/><path d="M153.496 360.926 163.921 356c-.267 14.817-6.396 24.765-18.388 29.844 7.218-10.463 9.872-18.769 7.963-24.918Z" fill="#86D1CD"/><path d="M479.522 305.975c-1.776 2.005-5.786 4.697-8.306 5.327-5.499 1.337-11.571.191-18.216-3.437l3.895-7.561c.229.287 5.728 4.984 11.056 5.27 4.811.267 9.299-1.165 13.461-4.296.038 1.68-.592 3.246-1.89 4.697Z" fill="#6BB7BF"/><path d="M480.496 285.926 490.921 281c-.267 14.817-6.396 24.765-18.388 29.844 7.218-10.463 9.872-18.769 7.963-24.918Z" fill="#86D1CD"/></svg>