<svg width="1378" height="488" viewBox="0 0 1378 488" fill="none" xmlns="http://www.w3.org/2000/svg">
<path d="M579.485 500.289C537.435 409.26 540.735 335.388 589.387 278.674C649.344 208.717 730.862 194.968 794.21 237.094C821.191 255.061 896.5 250.782 987.253 165.438C1105.14 54.5693 1400.59 116.028 1343.54 337.674C1315.93 444.931 1434.14 393.306 1377.28 500.502L579.485 500.289Z" fill="#CDE7FB"/>
<path d="M690.406 345.14L678.233 373.275L673.963 372.607L676.84 340.982L690.406 345.14Z" fill="#FFB27D"/>
<path d="M678.808 370.027C678.142 372.233 678.011 374.165 678.414 375.824C678.838 377.463 676.295 379.709 673.478 382.835C673.176 383.169 672.661 382.835 672.721 382.41C672.752 382.198 672.812 381.955 672.933 381.651C673.277 380.842 673.943 379.749 674.932 378.373C674.811 377.918 671.783 379.557 670.087 380.68C669.118 381.317 666.271 384.413 665.484 383.958C664.727 383.503 665.969 380.528 667.301 378.343C668.603 376.158 673.357 374.307 673.963 372.607C674.347 371.494 675.962 370.634 678.808 370.027Z" fill="#FFB27D"/>
<path d="M692.677 226.199L724.109 212.754L753.088 226.593L724.109 241.343L692.677 226.199Z" fill="#233862"/>
<path d="M692.737 226.047C692.768 225.804 693.04 225.713 693.252 225.834C693.434 225.986 693.525 226.229 693.494 226.441C693.101 228.293 691.859 236.244 698.218 241.04L697.764 241.616C691.163 236.639 692.313 228.171 692.737 226.047Z" fill="#EFCBAB"/>
<path d="M698.218 241.04L699.157 241.374L698.37 242.406L697.764 241.616L698.218 241.04Z" fill="#D8A987"/>
<path d="M699.157 241.374C699.944 241.96 700.469 242.163 700.732 241.981C700.469 242.729 700.156 243.144 699.793 243.225C699.066 242.982 698.592 242.709 698.37 242.405L699.157 241.374Z" fill="#EFCBAB"/>
<path d="M712.995 466.358L710.845 475.372L708.029 487.3H699.187L698.642 475.858L698.248 467.056L712.995 466.358Z" fill="#FFB27D"/>
<path d="M695.675 500.381C695.675 497.487 695.887 495.565 696.31 494.614C696.714 493.643 697.673 491.205 699.187 487.3H708.029C709.119 490.861 709.705 493.228 709.786 494.402C709.846 495.575 709.846 497.568 709.786 500.381H695.675Z" fill="#233862"/>
<path d="M737.765 500.381C737.685 497.568 737.685 495.575 737.765 494.402C737.826 493.228 738.401 490.861 739.492 487.3H748.334C749.848 491.205 750.817 493.643 751.241 494.614C751.644 495.565 751.846 497.487 751.846 500.381H737.765Z" fill="#233862"/>
<path d="M731.83 253.24C730.902 256.437 731.326 262.355 733.102 270.995L741.853 283.135L726.713 321.892L705.092 291.876L714.873 270.783C715.68 267.889 716.195 263.225 716.417 256.791C727.621 251.227 732.759 250.043 731.83 253.24Z" fill="#FFB27D"/>
<path d="M731.467 258.612C730.639 262.76 728.398 264.885 724.745 264.986C719.264 265.138 716.357 258.127 716.357 258.127L731.467 258.612Z" fill="#ED985F"/>
<path d="M713.086 252.451C711.915 246.543 710.916 242.699 710.088 240.918C708.847 238.248 707.817 226.29 721.504 225.652C724.997 226.077 727.702 225.703 729.62 224.529C729.62 225.703 729.378 226.492 728.893 226.897C731.275 225.399 733.698 226.027 736.161 228.778C739.885 232.906 734.858 248.445 735.192 251.844L713.086 252.451Z" fill="#132644"/>
<path d="M724.109 262.285C720.142 262.194 712.844 256.913 712.844 250.357V240.129C712.844 237.732 714.509 235.759 716.538 235.759H731.679C733.708 235.759 735.373 237.732 735.373 240.129V249.78C735.373 256.64 728.651 262.345 724.109 262.285Z" fill="#FFB27D"/>
<path d="M712.844 235.455C713.964 232.602 736.554 232.511 735.01 237.003C733.466 241.495 722.564 237.549 717.719 238.49C714.469 239.118 712.844 241.485 712.844 245.592C712.077 240.736 712.077 237.357 712.844 235.455Z" fill="#132644"/>
<path d="M714.873 270.783C714.873 270.783 717.881 271.461 723.897 272.816L733.042 270.601L735.373 284.683L725.108 319.677L713.904 277.733L714.873 270.783Z" fill="white"/>
<path d="M714.873 272.422L723.897 272.816L732.285 270.601L733.799 272.361L726.137 279.038L723.957 275.183L721.595 279.038L714.419 273.666L714.873 272.422Z" fill="#D2E3FC"/>
<path d="M755.48 422.533C755.238 435.189 754.208 477.041 753.966 489.333H734.556C733.193 480.41 728.621 446.145 727.046 438.709C725.956 433.459 725.138 429.058 725.169 426.327C725.169 424.597 724.835 421.835 724.29 418.436C723.705 421.43 723.069 424.445 722.383 427.48C720.899 434.187 718.143 473.217 715.721 488.848L697.219 488.635C695.432 474.826 693.525 435.735 692.677 422.533C690.9 394.935 692.273 370.786 696.795 350.087L723.776 351.787L730.104 351.392C730.256 351.15 730.407 351.15 730.528 351.362L752.058 349.996C754.723 375.854 755.864 400.033 755.48 422.533Z" fill="#EE9849"/>
<path d="M766.926 459.104C757.024 464.294 689.618 470.455 677.536 456.191C676.183 454.572 685.076 393.447 704.214 272.816C705.445 272.452 707.101 272.078 709.18 271.693C710.785 271.39 712.693 271.086 714.873 270.813C714.903 271.481 719.536 300.89 725.865 312.332C730.649 301.79 733.062 288.011 733.102 270.995C733.102 270.843 733.072 270.722 733.042 270.601C734.404 270.752 735.797 270.934 737.16 271.177C737.745 271.278 738.331 271.39 738.916 271.511C741.127 271.966 743.368 272.543 745.608 273.271C761.193 396.432 768.299 458.376 766.926 459.104Z" fill="#1C468A"/>
<path d="M712.026 271.147C705.142 324.077 700.388 352.525 697.764 356.491C696.098 358.98 693.676 359.405 690.83 358.828C690.284 358.727 689.719 358.595 689.134 358.433L681.23 355.368H681.2C679.928 354.852 678.626 354.367 677.354 353.972C669.209 351.453 669.845 344.594 672.025 335.246C674.235 325.898 688.558 280.92 693.373 277.733C699.066 273.99 705.284 271.794 712.026 271.147Z" fill="#1C468A"/>
<path d="M733.042 270.601C726.259 269.872 719.9 270.206 714.873 270.813C714.873 270.793 714.873 270.783 714.873 270.783C726.097 263.822 732.153 263.762 733.042 270.601Z" fill="#FFB27D"/>
<path d="M727.137 319.677C720.192 314.558 714.207 298.563 709.18 271.693C710.785 271.39 712.693 271.086 714.873 270.813C714.903 271.481 719.294 299.251 725.623 310.723C730.569 301.254 733.062 288.011 733.102 270.995C733.102 270.843 733.072 270.722 733.042 270.601C734.404 270.752 735.797 270.934 737.16 271.177C737.745 271.278 738.331 271.39 738.916 271.511C738.936 285.857 735.01 301.912 727.137 319.677Z" fill="#BC3F3F"/>
<path d="M720.596 254.697C723.766 254.373 726.087 254.394 727.561 254.758C726.753 256.033 725.714 256.66 724.442 256.64C722.504 256.64 721.05 255.911 720.596 254.697Z" fill="#FFF0E6"/>
<path d="M711.996 225.592C724.139 219.734 731.8 223.224 735.07 225.106C736.221 225.774 737.039 226.927 737.311 228.232L737.553 234.909C725.885 230.559 716.508 230.761 709.422 235.516L709.119 230.872C709.241 228.991 710.3 226.411 711.996 225.592Z" fill="#1C468A"/>
<path d="M723.897 272.816L721.626 277.733L712.026 271.147L715.66 266.534L723.897 272.816Z" fill="white"/>
<path d="M734.586 270.783L726.319 277.733L723.897 272.816L732.315 266.534L734.586 270.783Z" fill="white"/>
<path d="M723.624 283.681C723.897 283.408 724.321 283.408 724.563 283.681C724.835 283.955 724.835 284.349 724.563 284.622C724.321 284.895 723.897 284.895 723.624 284.622C723.382 284.349 723.382 283.955 723.624 283.681Z" fill="#D2E3FC"/>
<path d="M723.624 290.844C723.897 290.571 724.321 290.571 724.563 290.844C724.835 291.087 724.835 291.512 724.563 291.785C724.321 292.028 723.897 292.028 723.624 291.785C723.382 291.512 723.382 291.087 723.624 290.844Z" fill="#D2E3FC"/>
<path d="M723.624 298.189C723.897 297.946 724.321 297.946 724.563 298.189C724.835 298.462 724.835 298.887 724.563 299.13C724.321 299.403 723.897 299.403 723.624 299.13C723.382 298.887 723.382 298.462 723.624 298.189Z" fill="#D2E3FC"/>
<path d="M745.578 273.271C749.898 275.072 753.219 278.623 755.541 283.924C758.993 291.876 773.376 313.607 772.952 323.774C772.528 333.941 770.59 343.198 760.931 343.501C754.299 343.714 747.546 337.219 747.546 327.507C747.546 321.012 746.89 302.933 745.578 273.271Z" fill="#1C468A"/>
<path d="M766.169 337.796C765.897 340.557 764.867 342.773 762.445 343.38C754.693 345.322 751.271 337.826 752.876 330.481C752.936 330.238 753.007 330.006 753.088 329.783C754.723 324.411 760.688 323.592 762.869 323.47C763.212 323.45 763.484 323.44 763.686 323.44C763.727 323.521 763.767 323.642 763.807 323.804C764.383 325.443 766.654 332.575 766.169 337.796Z" fill="#233862"/>
<path d="M766.169 337.796C751.109 331.017 740.602 323.723 734.647 315.913C734.202 315.347 734.546 314.709 735.676 314.001L762.869 323.47L763.807 323.804C764.383 325.443 766.654 332.575 766.169 337.796Z" fill="#FFB27D"/>
<path d="M739.613 353.972H709.755V314.547H739.613V353.972Z" fill="#FCECDB"/>
<path d="M724.533 344.169L721.686 349.359L720.778 347.659L718.658 347.963L722.019 342.348L724.533 344.169Z" fill="#932424"/>
<path d="M726.471 341.984L729.832 347.599L727.712 347.295L726.804 348.995L723.927 343.835L726.471 341.984Z" fill="#932424"/>
<path d="M720.838 341.104C721.202 338.645 722.534 337.674 724.563 337.371C727.228 336.976 728.287 339.04 728.287 341.104C728.287 343.167 726.622 344.837 724.563 344.837C722.504 344.837 720.535 343.137 720.838 341.104Z" fill="#BC3F3F"/>
<path fill-rule="evenodd" clip-rule="evenodd" d="M724.563 344.078C723.654 344.078 722.746 343.653 722.171 342.985C721.686 342.409 721.474 341.741 721.595 341.073C721.868 339.283 722.776 338.372 724.533 338.129C725.36 337.988 726.037 338.15 726.561 338.615C727.167 339.131 727.53 340.041 727.53 341.104C727.53 342.743 726.198 344.078 724.563 344.078ZM725.047 338.433C724.906 338.433 724.755 338.443 724.593 338.463C722.958 338.706 722.171 339.495 721.928 341.134C721.838 341.68 722.019 342.287 722.443 342.743C722.958 343.35 723.745 343.714 724.563 343.714C726.016 343.714 727.197 342.53 727.197 341.104C727.197 340.132 726.864 339.343 726.349 338.858C726.006 338.574 725.572 338.433 725.047 338.433Z" fill="#932424"/>
<path d="M728.833 319.312H720.535C720.384 319.312 720.263 319.191 720.263 319.039C720.263 318.918 720.384 318.796 720.535 318.796H728.833C728.954 318.796 729.075 318.918 729.075 319.039C729.075 319.191 728.954 319.312 728.833 319.312Z" fill="#1C468A"/>
<path d="M730.437 320.344H718.9C718.779 320.344 718.658 320.223 718.658 320.101C718.658 319.95 718.779 319.859 718.9 319.859H730.437C730.589 319.859 730.68 319.95 730.68 320.101C730.68 320.223 730.589 320.344 730.437 320.344Z" fill="#1C468A"/>
<path d="M733.193 329.055H716.175C716.024 329.055 715.902 328.933 715.902 328.751C715.902 328.599 716.024 328.478 716.175 328.478H733.193C733.344 328.478 733.465 328.599 733.465 328.751C733.465 328.933 733.344 329.055 733.193 329.055Z" fill="#1C468A"/>
<path d="M733.193 330.481H716.175C716.024 330.481 715.902 330.36 715.902 330.208C715.902 330.026 716.024 329.905 716.175 329.905H733.193C733.344 329.905 733.465 330.026 733.465 330.208C733.465 330.36 733.344 330.481 733.193 330.481Z" fill="#1C468A"/>
<path d="M733.193 331.726H716.175C716.024 331.726 715.902 331.604 715.902 331.452C715.902 331.301 716.024 331.149 716.175 331.149H733.193C733.344 331.149 733.465 331.301 733.465 331.452C733.465 331.604 733.344 331.726 733.193 331.726Z" fill="#1C468A"/>
<path d="M733.193 333.122H716.175C716.024 333.122 715.902 332.97 715.902 332.818C715.902 332.666 716.024 332.545 716.175 332.545H733.193C733.344 332.545 733.465 332.666 733.465 332.818C733.465 332.97 733.344 333.122 733.193 333.122Z" fill="#1C468A"/>
<path fill-rule="evenodd" clip-rule="evenodd" d="M734.737 341.407C734.313 341.771 733.859 342.095 733.375 342.378C733.193 342.5 732.981 342.591 732.799 342.682C732.799 342.702 732.799 342.712 732.799 342.712C732.698 343.016 732.587 343.309 732.466 343.592C732.466 343.653 732.375 343.683 732.315 343.653C732.133 343.532 732.073 343.289 732.133 343.076C732.194 342.834 732.406 342.682 732.618 342.56C732.678 342.409 732.709 342.257 732.739 342.105C732.769 341.984 732.799 341.893 732.709 341.802C732.648 341.771 732.587 341.741 732.527 341.711C732.466 341.68 732.375 341.62 732.345 341.559C732.325 341.559 732.315 341.559 732.315 341.559C732.224 341.589 732.133 341.529 732.073 341.468C731.931 341.69 731.79 341.903 731.649 342.105C731.669 342.166 731.679 342.216 731.679 342.257C731.709 342.5 731.406 342.621 731.255 342.439C731.225 342.409 731.225 342.348 731.255 342.318C731.316 342.257 731.366 342.186 731.406 342.105C731.386 342.085 731.356 342.065 731.316 342.045C731.295 342.024 731.275 342.004 731.255 341.984C731.275 342.004 731.275 342.024 731.255 342.045C731.164 342.469 730.982 343.046 730.528 343.167C730.044 343.289 729.892 342.803 729.862 342.409C729.832 341.953 729.741 341.346 729.983 340.891C730.044 340.77 730.195 340.648 730.347 340.739C730.498 340.83 730.437 341.164 730.437 341.316C730.407 341.468 730.195 341.438 730.225 341.316C730.225 341.225 730.256 341.104 730.225 341.043C730.195 340.891 730.135 341.013 730.104 341.104C730.074 341.255 730.044 341.407 730.044 341.559C730.044 341.862 730.044 342.196 730.074 342.5C730.104 342.621 730.104 342.803 730.195 342.894C730.347 343.046 730.589 342.955 730.71 342.803C730.861 342.652 730.952 342.439 731.013 342.227C730.952 342.196 730.922 342.136 730.982 342.075C731.043 341.974 731.094 341.883 731.134 341.802C731.094 341.741 731.073 341.67 731.073 341.589C731.043 341.377 731.134 341.195 731.346 341.104C731.406 341.073 731.497 341.134 731.497 341.195C731.477 341.397 731.437 341.589 731.376 341.771C731.417 341.812 731.457 341.852 731.497 341.893C731.497 341.913 731.507 341.933 731.528 341.953C731.669 341.731 731.81 341.508 731.951 341.286C731.931 341.266 731.921 341.245 731.921 341.225C731.861 341.043 731.83 340.8 731.951 340.648C732.073 340.497 732.254 340.466 732.406 340.588C732.436 340.618 732.466 340.648 732.466 340.709C732.365 340.891 732.264 341.083 732.163 341.286C732.184 341.306 732.204 341.316 732.224 341.316C732.244 341.296 732.254 341.276 732.254 341.255C732.315 341.104 732.527 341.073 732.587 341.225C732.618 341.316 732.587 341.407 732.527 341.468C732.567 341.488 732.608 341.508 732.648 341.529C732.799 341.62 732.981 341.711 732.981 341.923C732.981 342.075 732.951 342.227 732.89 342.409C733.496 342.045 734.071 341.68 734.616 341.225C734.707 341.164 734.858 341.316 734.737 341.407ZM732.073 341.013C732.133 340.911 732.184 340.82 732.224 340.739C732.133 340.709 732.073 340.891 732.073 340.952C732.073 340.972 732.073 340.992 732.073 341.013ZM732.527 342.864C732.375 343.016 732.254 343.228 732.345 343.38C732.406 343.218 732.466 343.046 732.527 342.864Z" fill="#1C468A"/>
<path fill-rule="evenodd" clip-rule="evenodd" d="M738.432 352.849H711.148V315.913H738.432V352.849ZM711.451 352.546H738.099V316.247H711.451V352.546Z" fill="#1C468A"/>
<path d="M732.133 310.723C733.344 310.663 735.081 311.937 737.342 314.547C735.747 314.547 734.596 314.547 733.889 314.547C732.86 314.547 727.53 317.704 725.562 317.006C724.25 316.52 725.421 314.699 729.075 311.543C729.923 311.057 730.942 310.784 732.133 310.723Z" fill="#FFB27D"/>
<path d="M697.764 303.166L690.83 358.828C690.285 358.727 689.719 358.595 689.134 358.433L681.23 355.368H681.2C682.835 353.689 684.753 349.925 686.954 344.078C689.154 338.23 692.757 324.593 697.764 303.166Z" fill="#233862"/>
<path d="M868.974 365.991C870.932 370.199 871.861 372.88 871.76 374.033C871.639 375.187 870.71 377.584 868.974 381.226L865.855 366.719L868.974 365.991Z" fill="#FFB27D"/>
<path d="M866.703 338.858L868.974 365.991L865.855 366.719L857.528 342.105L866.703 338.858Z" fill="#FFB27D"/>
<path d="M798.994 251.662L830.275 233.149L851.744 248.233L821.978 265.623L798.994 251.662Z" fill="#233862"/>
<path d="M841.176 251.875C844.366 255.759 846.798 259.584 848.474 263.347C850.957 268.992 843.931 273.18 849.261 279.615C854.56 286.018 856.74 294.486 853.621 298.553C850.503 302.62 821.796 300.677 809.26 303.409C796.723 306.14 796.602 297.005 797.541 291.967C798.479 286.959 803.627 285.26 802.689 277.672C801.75 270.115 805.505 269.447 809.895 267.08C812.802 265.522 814.518 263.226 815.043 260.191C818.717 252.037 827.428 249.265 841.176 251.875Z" fill="#132644"/>
<path d="M831.789 468.422L831.546 486.237L825.218 486.268L820.978 468.422H831.789Z" fill="#FFB27D"/>
<path d="M883.782 466.813L891.019 480.228L886.325 486.268L874.304 469.181L883.782 466.813Z" fill="#FFB27D"/>
<path d="M837.633 288.416C837.663 288.446 836.846 308.295 833.454 308.356C832.758 308.356 827.489 294.425 826.823 294.243C823.189 293.272 822.674 284.349 822.734 284.349C824.279 284.015 824.703 281.921 824.673 272.816L825.369 272.938L837.058 275.275C836.896 277.723 836.806 280.11 836.785 282.437C836.785 285.351 836.967 288.113 837.633 288.416Z" fill="#FFB27D"/>
<path d="M790.394 268.506L790.001 267.687C798.51 263.62 798.964 254.03 798.964 251.814C798.964 251.541 799.115 251.298 799.388 251.177C799.63 251.055 799.933 251.237 799.933 251.541C799.903 254.121 799.267 264.257 790.394 268.506Z" fill="#EFCBAB"/>
<path d="M790.394 268.506L789.486 269.265L788.82 267.869L790.001 267.687L790.394 268.506Z" fill="#D8A987"/>
<path d="M789.486 269.265C789.143 269.548 788.527 269.751 787.639 269.872C787.215 269.69 786.942 269.134 786.821 268.203C787.104 268.466 787.77 268.355 788.82 267.869L789.486 269.265Z" fill="#EFCBAB"/>
<path d="M837.058 275.274C836.896 277.723 836.805 280.11 836.785 282.437C830.244 282.255 826.792 276.246 825.369 272.938L837.058 275.274Z" fill="#EF9E67"/>
<path d="M822.977 273.362C820.009 270.267 817.95 267.252 816.8 264.318C815.588 261.192 814.801 248.809 827.247 248.111C829.629 247.868 832.071 248.263 834.575 249.295C837.542 250.539 842.084 253.605 839.965 264.986L839.601 268.749L822.977 273.362Z" fill="#132644"/>
<path d="M889.899 476.343C887.819 476.687 885.932 476.93 884.236 477.072C883.661 477.102 883.116 477.132 882.661 477.132C881.42 477.132 879.209 476.677 877.725 476.313L877.604 476.283C876.968 476.131 876.454 476.009 876.272 475.979L876.211 475.949C865.875 464.416 857.81 449.413 852.017 430.94C851.815 430.292 851.593 429.635 851.35 428.967C846.596 415.067 836.725 397.615 831.547 381.803C830.719 379.294 829.972 376.917 829.306 374.671C829.084 373.963 828.882 373.265 828.7 372.577C824.854 359.223 823.734 350.451 822.735 341.104L853.985 349.086C862.726 387.084 874.697 429.503 889.899 476.343Z" fill="#A53D38"/>
<path d="M839.117 277.126C829.023 279.331 823.34 277.278 822.069 270.965C820.161 261.496 816.921 255.547 826.49 253.028C836.058 250.509 838.693 253.726 840.086 256.731C841.509 259.735 842.993 276.003 839.117 277.126Z" fill="#FFB27D"/>
<path d="M833.363 251.389C832.071 259.361 829.417 264.318 825.399 266.261C821.362 268.223 818.304 268.82 816.224 268.051C818.97 264.794 820.221 260.828 819.979 256.154C826.096 249.861 830.557 248.273 833.363 251.389Z" fill="#132644"/>
<path d="M838.572 251.541C841.499 253.928 842.428 257.854 841.358 263.317C841.176 259.675 838.602 258.886 837.361 256.609C836.533 255.112 834.918 253.736 832.516 252.482C833.464 249.345 835.483 249.032 838.572 251.541Z" fill="#132644"/>
<path d="M831.547 486.237C832.213 489.596 832.728 492.236 833.091 494.159C833.606 497.072 832.455 497.527 827.822 497.436C824.713 497.376 823.502 495.767 824.188 492.611C825.076 490.082 825.349 487.633 825.006 485.266L831.547 486.237Z" fill="#FFB27D"/>
<path d="M902.253 496.496L898.892 496.951L884.63 483.506L891.019 480.228C892.775 483.465 896.51 488.271 902.223 494.644L902.253 496.496Z" fill="#FFB27D"/>
<path d="M907.704 500.229C901.547 500.229 897.943 500.178 896.893 500.077C895.319 499.895 894.047 497.588 892.321 494.159C891.624 492.763 890.05 491.973 888.445 491.549V499.5H885.992L883.691 491.063C882.177 488.271 883.57 485.721 884.63 483.506C885.871 483.506 889.232 484.356 895.561 491.518C897.65 493.885 899.952 494.705 902.223 494.644C902.263 494.664 902.304 494.685 902.344 494.705C905.857 496.283 907.643 498.124 907.704 500.229Z" fill="#C45446"/>
<path d="M884.236 477.072C883.661 477.102 883.116 477.132 882.661 477.132C881.42 477.132 879.209 476.677 877.726 476.313L877.604 476.283L876.272 475.979L876.211 475.949C865.875 464.416 857.811 449.413 852.017 430.94C851.815 430.292 851.593 429.635 851.351 428.967C846.596 415.067 836.725 397.615 831.547 381.803C830.719 379.294 829.972 376.917 829.306 374.671C829.084 373.962 828.882 373.264 828.7 372.576L834.211 368.358C845.274 386.305 852.521 403.736 855.953 420.651C860.193 441.653 878.543 468.877 884.236 477.072Z" fill="#912F2F"/>
<path d="M834.787 422.988C834.878 435.34 834.272 463.657 832.667 475.402C831.658 476.293 829.891 476.748 827.368 476.768C824.804 476.768 822.947 476.293 821.796 475.342C817.769 454.947 814.922 438.072 812.833 423.534C811.137 411.607 809.623 401.348 808.442 392.547C807.755 387.347 809.593 377.696 813.953 363.593L838.481 361.195C838.057 382.805 834.726 415.825 834.787 422.988Z" fill="#A53D38"/>
<path d="M827.368 476.768C825.187 476.89 823.33 476.414 821.796 475.342C817.768 454.947 814.922 438.072 812.833 423.534C811.137 411.607 809.623 401.348 808.442 392.547C807.755 387.347 809.593 377.696 813.953 363.593L822.25 368.935C814.397 376.097 811.44 386.457 813.378 400.013C816.254 420.348 823.34 473.885 827.368 476.768Z" fill="#912F2F"/>
<path d="M866.007 346.567C864.493 347.083 862.766 347.386 861.04 347.659C858.345 348.054 855.681 348.297 853.985 349.086C850.634 350.603 844.911 328.933 836.816 284.076C842.71 284.137 847.01 286.302 849.715 290.571C853.773 297.005 869.58 328.69 871.003 338.858C871.639 343.41 869.277 345.474 866.007 346.567Z" fill="#1C468A"/>
<path d="M884.236 437.313C883.691 438.669 882.672 440.298 881.178 442.2C880.087 443.626 878.604 445.265 876.726 446.934C871.76 451.335 863.826 456.1 851.593 458.467C850.947 458.609 850.291 458.73 849.625 458.831C845.93 459.438 842.387 459.894 838.996 460.197C832.152 460.774 825.975 460.804 820.736 460.561C817.133 460.41 813.983 460.106 811.319 459.772C807.322 459.287 804.182 458.73 801.901 458.103C801.901 417.576 803.577 385.273 806.928 361.195C808.765 347.882 812.782 322.267 818.98 284.349L823.583 283.651L834.635 308.356L836.816 284.076L841.842 285.685C844.325 286.474 846.203 288.507 846.839 291.026L884.236 437.313Z" fill="#1C468A"/>
<path d="M848.565 343.926L822.886 341.316L827.065 304.046L852.743 306.656L848.565 343.926Z" fill="#BC3F3F"/>
<path d="M822.886 341.316L821.554 341.164L825.4 303.925L827.065 304.046L822.886 341.316Z" fill="#9B2323"/>
<path d="M805.535 323.258C817.547 326.94 829.296 329.601 840.782 331.24C844.557 332.879 845.557 333.921 843.78 334.366C843.114 334.548 808.624 342.075 803.506 337.188L805.535 323.258Z" fill="#FFB27D"/>
<path d="M820.04 326.809C816.8 336.187 806.443 352.151 799.721 341.984C794.089 333.486 800.599 296.641 807.776 287.991C809.29 286.17 814.539 284.724 823.522 283.651C824.461 292.483 821.705 321.923 820.04 326.809Z" fill="#1C468A"/>
<path d="M839.087 330.997C840.5 330.855 841.338 330.562 841.6 330.117C842.387 328.751 843.659 328.782 844.719 328.599C845.779 328.417 846.99 327.264 847.202 327.477C847.414 327.719 846.415 328.994 845.87 329.48C846.617 329.52 847.242 329.419 847.747 329.176C848.504 328.842 851.139 325.807 851.139 327.112C851.169 330.238 850.927 330.724 848.262 332.939C846.788 334.153 843.568 334.993 838.602 335.459L839.087 330.997Z" fill="#FFB27D"/>
<path d="M823.492 322.438L822.977 327.719C822.129 327.537 821.16 327.264 820.04 326.809C815.114 324.826 813.62 318.928 815.558 309.115C816.709 315.003 820.433 319.555 823.492 322.438Z" fill="#233862"/>
<path d="M841.176 251.875C833.888 249.103 825.177 251.875 815.043 260.191L815.376 257.338C815.649 254.788 816.951 252.451 819.01 250.934C821.311 249.204 825.006 247.322 830.547 246.533C834.363 245.987 838.148 247.626 840.389 250.752L841.176 251.875Z" fill="#1C468A"/>
<path d="M866.007 346.567C864.493 347.083 862.767 347.386 861.04 347.659L853.955 316.277C861.909 332.343 865.926 342.439 866.007 346.567Z" fill="#233862"/>
<path d="M839.934 271.117C839.591 272.067 839.359 272.624 839.238 272.786C839.056 272.998 836.452 273.271 835.423 273.271C834.736 273.271 834.161 272.816 833.697 271.906C834.988 271.319 837.068 271.056 839.934 271.117Z" fill="white"/>
<path d="M1185.5 311.816C1184.76 310.744 1183.95 309.874 1183.08 309.206C1181.78 308.235 1180.42 306.353 1180.84 305.746C1181.1 305.341 1182.53 304.188 1185.11 302.286L1187.17 307.415L1185.5 311.816Z" fill="#FFB27D"/>
<path d="M1218.96 252.026L1252.73 238.612L1271.62 256.852L1239.53 269.417L1218.96 252.026Z" fill="#233862"/>
<path d="M1205.58 340.284C1201.38 342.227 1194.69 332.737 1185.5 311.816L1187.11 307.021L1200.55 324.35C1205.86 334.062 1207.54 339.374 1205.58 340.284Z" fill="#FFB27D"/>
<path d="M1242.58 267.899C1238.2 270.489 1237.36 274.283 1240.04 279.281C1236.2 278.573 1233.87 277.642 1233.05 276.489C1233.15 276.974 1233.27 277.338 1233.41 277.581C1228.93 277.015 1226.27 275.892 1225.44 274.212C1222.87 269.022 1229.08 269.356 1231.77 263.954C1235.29 256.943 1240.77 251.419 1248.55 255.274C1255.8 254.889 1257.79 259.351 1254.51 268.658C1251.24 277.966 1251.15 283.034 1254.24 283.864C1253.27 284.066 1252.58 284.106 1252.15 283.985C1251.61 283.601 1251.33 283.216 1251.31 282.832C1251.29 283.398 1251.33 283.793 1251.43 284.015C1247.99 283.429 1245.61 282.285 1244.28 280.586C1242.28 278.036 1241.07 270.661 1242.58 267.899Z" fill="#C94C43"/>
<path d="M1249.03 285.776C1249.25 287.506 1249.46 289.053 1249.58 289.812C1249.64 290.328 1250.85 299.767 1248.64 299.888C1246.46 299.979 1241.04 311.148 1238.62 311.057C1235.89 310.966 1233.47 290.389 1233.11 290.389C1233.8 290.085 1235.92 283.317 1236.62 280.737C1237.16 278.633 1237.65 276.458 1238.07 274.212L1249.16 274.91L1249.82 274.941C1249.4 276.458 1249.09 277.885 1248.91 279.22C1248.89 279.402 1248.86 279.584 1248.82 279.766C1248.64 281.223 1248.82 283.651 1249.03 285.776Z" fill="#FFB27D"/>
<path d="M1236.53 273.089C1235.34 269.285 1234.86 265.917 1235.1 262.983C1235.35 259.857 1240.34 250.994 1251 255.547C1252.76 255.122 1254.46 255.861 1256.12 257.763C1258.09 260.039 1260.63 264.47 1254.21 273.12L1252.33 276.094L1236.53 273.089Z" fill="#C94C43"/>
<path d="M1249.03 285.776C1243.87 284.258 1240.19 280.505 1238.01 274.516C1241.28 274.607 1245.55 276.913 1248.91 279.22C1248.89 279.402 1248.86 279.584 1248.82 279.766C1248.64 281.223 1248.82 283.651 1249.03 285.776Z" fill="#ED975D"/>
<path d="M1249.61 282.619C1240.26 280.313 1236.36 276.256 1237.89 270.449C1240.16 261.738 1239.89 255.426 1248.94 257.277C1258 259.098 1258.85 262.892 1258.78 265.987C1258.72 269.083 1253.3 283.317 1249.61 282.619Z" fill="#FFB27D"/>
<path d="M1255.36 258.734C1251 264.864 1246.74 267.92 1242.58 267.899C1238.41 267.859 1235.61 267.09 1234.2 265.593C1237.81 264.015 1240.48 261.222 1242.22 257.216C1249.91 254.485 1254.29 254.991 1255.36 258.734Z" fill="#C94C43"/>
<path d="M1259.66 261.04C1261.12 264.237 1260.27 267.889 1257.12 271.997C1255.76 271.815 1256.67 267.171 1256.54 264.743C1256.48 263.145 1255.7 261.334 1254.18 259.31C1256.28 257.085 1258.11 257.661 1259.66 261.04Z" fill="#C94C43"/>
<path d="M1254.64 259.796C1250.94 266.453 1246.32 270.267 1240.77 271.238C1246.86 268.163 1250.74 264.328 1252.4 259.735C1254.07 255.142 1254.82 255.163 1254.64 259.796Z" fill="#C94C43"/>
<path d="M1252.82 278.249C1252.25 278.937 1251.89 279.331 1251.73 279.432C1251.52 279.554 1249.28 279.008 1248.43 278.674C1247.86 278.471 1247.52 277.925 1247.4 277.035C1248.65 276.934 1250.46 277.338 1252.82 278.249Z" fill="white"/>
<path d="M1242.19 410.302C1242.01 411.05 1241.83 411.789 1241.65 412.517C1240.59 416.918 1239.62 420.985 1238.98 424.414C1238.19 428.846 1237.98 432.154 1239.04 433.55C1241.77 437.131 1241.07 456.282 1240.19 470.091C1239.83 475.574 1239.45 480.42 1239.04 484.629L1234.11 489.758C1233.06 484.315 1231.88 478.296 1230.56 471.7C1227.9 458.406 1224.51 441.957 1223.14 437.92C1222.08 434.733 1220.54 421.106 1219.18 407.206C1219.12 406.498 1219.05 405.8 1218.97 405.112C1218.75 402.684 1218.51 400.256 1218.3 397.889C1217.47 389.107 1217.65 380.589 1218.84 372.334C1223.14 368.793 1228.06 366.78 1233.59 366.294C1238.47 365.869 1243.07 367.417 1245.34 373.457C1248.64 382.198 1245.28 397.312 1242.19 410.302Z" fill="#FFB27D"/>
<path d="M1242.19 410.302C1235.41 405.385 1225.84 396.644 1222.39 382.319C1221.72 375.187 1227.32 368.419 1233.59 366.294C1238.47 365.869 1243.07 367.417 1245.34 373.457C1248.64 382.198 1245.28 397.312 1242.19 410.302Z" fill="#ED975D"/>
<path d="M1266.93 323.774L1300.27 332.393V336.308C1278.14 336.045 1266.37 334.679 1264.93 332.211C1263.52 329.743 1264.19 326.93 1266.93 323.774Z" fill="#FFB27D"/>
<path d="M1300.27 452.397L1298.7 458.831C1294.11 456.464 1288.9 453.742 1283.07 450.667C1269.44 443.474 1251.34 433.732 1247.76 431C1245.43 429.21 1242.34 419.407 1239.47 408.359C1236.62 397.352 1233.93 385.405 1231.41 372.516C1235.63 356.269 1243.38 353.112 1254.67 363.047C1264.81 371.97 1263.24 389.178 1262.12 402.562C1261.39 411.546 1260.84 418.8 1264.2 420.681C1269.02 423.382 1280.71 433.216 1288.98 442.867C1291.94 446.327 1294.46 449.757 1296.06 452.822L1300.27 452.397Z" fill="#FFB27D"/>
<path d="M1300.27 332.393C1304.35 330.39 1307.19 329.287 1308.81 329.085C1311.23 328.812 1315.32 328.691 1315.32 329.085C1315.32 329.48 1310.96 332.211 1309.78 332.393C1308.63 332.606 1306.39 334.245 1307.05 334.457C1307.75 334.639 1311.35 333.82 1311.38 334.457C1311.44 335.094 1309.2 335.489 1308.81 335.974C1308.42 336.46 1307.05 337.037 1304.87 336.733C1303.42 336.551 1301.89 336.409 1300.27 336.308V332.393Z" fill="#FFB27D"/>
<path d="M1300.27 424.293C1285.92 444.992 1260.22 456.504 1223.17 458.831C1214.18 425.841 1217.87 342.439 1219.93 311.421C1219.81 306.019 1220.02 301.436 1220.9 299.676C1222.27 296.914 1229.78 292.149 1232.47 289.812C1232.89 289.63 1233.29 289.529 1233.65 289.509C1234.04 290.935 1239.04 307.961 1239.56 307.597C1240.04 307.233 1248.49 291.057 1249.37 289.144C1250.28 289.175 1250.91 289.205 1251.09 289.205C1252.58 289.296 1260.6 290.905 1261.27 292.21C1261.51 292.665 1263.81 298.765 1266.72 306.899C1272.14 322.135 1280.1 319.252 1283.28 323.774C1285.28 326.596 1284.4 331.877 1280.74 336.46C1280.42 336.845 1280.08 337.219 1279.74 337.583C1276.92 340.557 1273.11 342.318 1266.93 341.407C1265.39 341.195 1262.27 339.708 1259.72 337.492C1263.78 352.788 1277.3 381.722 1300.27 424.293Z" fill="#1C468A"/>
<path d="M1239.56 307.597L1249.37 288.264L1251.79 289.296C1243.84 304.937 1239.73 312.787 1239.47 312.848C1239.2 312.909 1236.42 305.422 1231.11 290.389L1234.01 288.72L1239.56 307.597Z" fill="#F99746"/>
<path d="M1258.85 259.614C1252.04 255.79 1243.02 257.237 1231.77 263.954L1232.5 261.192C1233.14 258.703 1234.8 256.609 1237.04 255.395C1239.59 254.06 1243.52 252.724 1249.09 252.755C1252.94 252.785 1256.45 254.97 1258.21 258.4L1258.85 259.614Z" fill="#1C468A"/>
<path d="M1208 266.959L1207.73 266.109C1216.78 263.438 1218.72 254.029 1219.06 251.844C1219.09 251.541 1219.3 251.328 1219.57 251.268C1219.84 251.177 1220.09 251.419 1220.05 251.693C1219.63 254.242 1217.42 264.166 1208 266.959Z" fill="#EFCBAB"/>
<path d="M1208 266.959L1207 267.566L1206.55 266.109H1207.73L1208 266.959Z" fill="#D8A987"/>
<path d="M1207 267.566C1206.62 267.808 1205.97 267.92 1205.07 267.899C1204.68 267.657 1204.5 267.06 1204.52 266.109C1204.76 266.433 1205.44 266.433 1206.55 266.109L1207 267.566Z" fill="#EFCBAB"/>
<path d="M1234.62 290.753C1236.4 294.011 1240.82 294.152 1247.88 291.178L1239.56 307.597L1234.62 290.753Z" fill="white"/>
<path d="M1231.11 290.389C1230.18 321.528 1225.88 340.112 1218.21 346.142C1217.42 346.779 1216.54 347.234 1215.63 347.477C1209.82 348.964 1205.61 345.474 1202.76 340.679C1198.77 334.002 1197.43 324.745 1198.1 322.621C1199.4 318.554 1202.34 325.747 1208.55 323.774C1214.76 321.801 1216.42 296.762 1220.75 293.12C1221.5 292.493 1224.95 291.583 1231.11 290.389Z" fill="#1C468A"/>
<path d="M1175 323.622C1173.85 322.995 1172.73 322.277 1171.63 321.467C1170.88 320.921 1170.12 320.314 1169.58 319.707C1169.27 319.343 1169.03 319.009 1168.88 318.675C1178.23 307.405 1183.27 301.102 1184.02 299.767C1184.77 298.432 1188.67 292.291 1195.74 281.345C1196.59 281.749 1197.54 282.295 1198.59 282.983C1199.16 283.348 1199.77 283.773 1200.37 284.258C1201.46 285.138 1202.49 286.17 1203.13 287.293C1192.85 297.734 1187.35 303.702 1186.62 305.2C1185.9 306.717 1182.02 312.858 1175 323.622Z" fill="#EFCBAB"/>
<path d="M1171.63 321.467C1170.88 320.921 1170.12 320.314 1169.58 319.707C1169.27 319.343 1169.03 319.009 1168.88 318.675C1178.23 307.405 1183.27 301.102 1184.02 299.767C1184.77 298.432 1188.67 292.291 1195.74 281.345C1196.59 281.749 1197.54 282.295 1198.59 282.983C1199.16 283.348 1199.77 283.773 1200.37 284.258C1196.04 288.689 1184.35 300.738 1183.35 302.832C1182.38 304.835 1174.78 316.611 1171.63 321.467Z" fill="#DDB08E"/>
<path d="M1190.77 300.253C1189.97 302.074 1188.3 304.228 1185.78 306.717L1181.45 303.227C1181.77 301.406 1183.3 299.15 1186.05 296.459L1190.77 300.253Z" fill="#C94C43"/>
<path d="M1185.5 310.359C1184.02 309.449 1184.57 304.562 1184.93 303.5C1185.29 302.468 1184.93 300.283 1185.5 300.01C1186.08 299.737 1186.14 302.377 1186.78 303.348C1187.2 303.976 1187.31 305.2 1187.11 307.021C1187.03 309.873 1186.49 310.986 1185.5 310.359Z" fill="#FFB27D"/>
<path d="M1180.33 304.805C1179.14 304.077 1179.93 302.195 1180.57 301.042C1180.97 300.293 1181.75 300 1182.9 300.162C1181.97 303.743 1181.11 305.291 1180.33 304.805Z" fill="#FFB27D"/>
<path d="M1240.19 470.091C1239.83 475.574 1239.45 480.42 1239.04 484.629L1234.11 489.758C1233.06 484.315 1231.87 478.296 1230.56 471.7C1234.26 472.995 1237.47 472.458 1240.19 470.091Z" fill="white"/>
<path d="M1244.04 492.004L1241.34 493.461C1240.37 493.825 1239.59 493.916 1238.59 494.28C1237.1 494.857 1236.04 495.98 1236.01 496.192C1235.51 498.236 1234.9 499.197 1234.2 499.075L1223.45 499.166C1222.93 498.924 1223.81 496.739 1224.2 496.344C1225.23 495.342 1228.26 495.828 1229.38 492.702C1229.79 491.508 1231.02 489.08 1233.08 485.418L1233.11 485.388C1233.2 485.357 1233.77 485.236 1236.86 485.873C1237.93 486.096 1238.69 485.125 1239.13 482.96C1239.48 483.02 1239.84 483.182 1240.22 483.445C1240.65 483.779 1241.13 484.265 1241.4 485.054C1241.77 486.177 1243.34 487.785 1244.49 488.848C1244.96 489.272 1245.36 489.626 1245.7 489.91C1246.01 490.294 1245.45 490.992 1244.04 492.004Z" fill="#233862"/>
<path d="M1300.27 452.397L1298.7 458.831C1294.11 456.464 1288.9 453.743 1283.07 450.667C1286.46 448.512 1288.16 445.295 1288.97 442.867C1291.94 446.327 1294.46 449.757 1296.06 452.822L1300.27 452.397Z" fill="white"/>
<path d="M1315.65 466.085C1315.41 466.601 1314.32 466.874 1313.47 466.996C1312.93 467.087 1312.35 466.905 1311.93 466.51C1310.9 465.508 1309.23 463.354 1306.05 462.322C1304.86 461.957 1302.41 460.794 1298.7 458.831V458.801C1298.63 458.71 1298.48 458.133 1299.06 455.007C1299.24 453.935 1298.24 453.206 1296.06 452.822C1296.12 452.478 1296.28 452.124 1296.55 451.76C1296.85 451.305 1297.33 450.819 1298.12 450.515C1299.21 450.091 1300.78 448.482 1301.78 447.298C1302.19 446.833 1302.53 446.418 1302.81 446.054C1303.2 445.73 1303.91 446.266 1304.96 447.663L1306.51 450.303C1306.87 451.274 1306.99 452.063 1307.39 453.034C1307.99 454.522 1308.93 454.825 1309.14 454.886C1309.16 454.886 1309.17 454.886 1309.17 454.886L1315.65 466.085Z" fill="#233862"/>
<path d="M1238.95 323.622C1239.84 323.622 1240.56 322.902 1240.56 322.014C1240.56 321.125 1239.84 320.405 1238.95 320.405C1238.06 320.405 1237.35 321.125 1237.35 322.014C1237.35 322.902 1238.06 323.622 1238.95 323.622Z" fill="#233862"/>
<path d="M1238.95 335.61C1239.84 335.61 1240.56 334.89 1240.56 334.002C1240.56 333.113 1239.84 332.393 1238.95 332.393C1238.06 332.393 1237.35 333.113 1237.35 334.002C1237.35 334.89 1238.06 335.61 1238.95 335.61Z" fill="#233862"/>
<path d="M1280.74 336.46C1280.42 336.845 1280.08 337.219 1279.74 337.583C1276.92 340.557 1273.11 342.318 1266.93 341.407C1265.39 341.195 1262.27 339.708 1259.72 337.492C1256.31 328.164 1254.84 322.843 1255.3 321.528C1256 319.555 1265.84 334.882 1273.99 335.61C1277.2 335.883 1279.35 336.157 1280.74 336.46Z" fill="#233862"/>
<path d="M1220.66 325.564L1218.21 346.142C1217.42 346.779 1216.54 347.234 1215.63 347.477C1209.82 348.964 1205.61 345.474 1202.76 340.679C1205.73 341.104 1212.94 341.741 1214.51 338.585C1215.85 335.934 1217.9 331.594 1220.66 325.564Z" fill="#233862"/>
<path d="M1078.4 209.081C1078.82 206.805 1080.61 206.835 1081.43 206.41C1082.21 205.955 1082.61 203.77 1082.82 202.799C1082.96 202.171 1083.32 201.959 1083.91 202.161C1083.91 204.164 1084 207.23 1083.27 209.081C1082.81 210.295 1081.62 211.772 1079.7 213.512C1078.55 212.076 1078.12 210.599 1078.4 209.081Z" fill="#B56F40"/>
<path d="M1073.07 213.967C1071.31 210.366 1070.62 207.978 1070.98 206.805C1071.5 205.045 1079.58 203.133 1080.64 203.952C1081.37 204.498 1081.37 208.14 1080.64 214.878L1073.07 213.967Z" fill="#B56F40"/>
<path d="M1163.28 374.398C1164.27 376.117 1165 377.372 1165.49 378.161C1166.18 379.314 1167.94 388.48 1167.03 389.451C1166.12 390.422 1164.76 388.48 1164.16 387.266C1163.52 386.022 1162.25 382.106 1161.82 382.015C1161.37 381.955 1162.7 385.324 1162.19 386.295C1161.67 387.266 1160.86 385.324 1159.31 383.199C1158.26 381.763 1157.87 379.567 1158.13 376.613L1163.28 374.398Z" fill="#B56F40"/>
<path d="M1102.56 242.254L1133.33 224.924L1153.98 250.6L1125.82 264.288L1102.56 242.254Z" fill="#233862"/>
<path d="M1117.92 248.142L1130.42 247.535L1139.11 254.181C1138.91 257.034 1138.72 259.604 1138.54 261.89C1138.38 264.177 1137.33 265.734 1135.39 266.564L1115.49 264.288C1113.6 262.608 1112.88 261.111 1113.34 259.796C1114.07 257.823 1111.22 255.183 1113.01 254.181C1114.22 253.534 1115.04 252.289 1115.46 250.448L1117.92 248.142Z" fill="#C94C43"/>
<path d="M1048.69 217.215C1048.09 215.778 1047.57 214.281 1047.15 212.723C1046.85 211.631 1046.6 210.508 1046.54 209.536C1046.51 208.99 1046.54 208.474 1046.63 208.049C1063.71 204.529 1073.09 202.424 1074.77 201.736C1076.44 201.049 1084.63 198.236 1099.32 193.299C1099.83 194.331 1100.31 195.545 1100.78 196.941C1101.05 197.73 1101.29 198.58 1101.5 199.46C1101.87 201.099 1102.05 202.859 1101.81 204.347C1084.51 206.41 1074.96 207.877 1073.16 208.747C1071.36 209.597 1063.21 212.42 1048.69 217.215Z" fill="#EFCBAB"/>
<path d="M1047.15 212.723C1046.85 211.631 1046.6 210.508 1046.54 209.536C1046.51 208.99 1046.54 208.474 1046.63 208.049C1063.71 204.529 1073.09 202.424 1074.77 201.736C1076.44 201.049 1084.63 198.236 1099.32 193.299C1099.83 194.331 1100.31 195.545 1100.78 196.941C1101.05 197.73 1101.29 198.58 1101.5 199.46C1094.18 200.371 1074.34 202.89 1071.89 204.073C1069.5 205.227 1053.69 210.538 1047.15 212.723Z" fill="#DDB08E"/>
<path d="M1080.7 207.199C1078.6 208.312 1075.45 209.081 1071.25 209.506L1069.8 203.042C1071.45 201.565 1074.56 200.614 1079.13 200.189L1080.7 207.199Z" fill="#C94C43"/>
<path d="M1085.33 499.166C1085.33 496.415 1085.54 494.584 1085.94 493.673C1086.32 492.763 1087.23 490.446 1088.66 486.723H1097.05C1098.1 490.122 1098.66 492.378 1098.72 493.491C1098.8 494.584 1098.8 496.475 1098.72 499.166H1085.33Z" fill="#233862"/>
<path d="M1125.3 499.166C1125.24 496.475 1125.24 494.584 1125.3 493.491C1125.37 492.378 1125.92 490.122 1126.97 486.723H1135.39C1136.82 490.446 1137.73 492.763 1138.11 493.673C1138.5 494.584 1138.69 496.415 1138.69 499.166H1125.3Z" fill="#233862"/>
<path d="M1132.66 265.957C1131.35 268.81 1130.9 274.425 1131.3 282.801L1137.78 295.457L1118.28 313.121L1104.05 284.956L1114.22 279.979C1115.39 277.389 1116.54 273.079 1117.67 267.05C1129 263.448 1134 263.084 1132.66 265.957Z" fill="#B56F40"/>
<path d="M1131.54 270.965C1130.17 274.728 1127.76 276.387 1124.31 275.942C1119.16 275.305 1117.43 268.294 1117.43 268.294L1131.54 270.965Z" fill="#99592E"/>
<path d="M1124.12 273.302C1120.4 272.664 1114.31 266.655 1115.25 260.494L1116.74 250.873C1117.07 248.627 1118.92 247.019 1120.82 247.322L1135.06 249.507C1136.96 249.811 1138.24 251.905 1137.9 254.151L1136.51 263.195C1135.51 269.66 1128.39 274.061 1124.12 273.302Z" fill="#B56F40"/>
<path d="M1117.73 358.342C1111.64 395.754 1108.61 418.658 1108.65 427.055C1108.67 434.926 1105.89 455.392 1100.32 488.453C1095.26 491.043 1090.37 491.043 1085.67 488.453C1084.23 464.638 1084.23 444.172 1085.67 427.055C1087.85 401.045 1086.36 355.247 1086.39 356.37L1117.73 358.342Z" fill="#F99746"/>
<path d="M1138.39 488.453C1133.7 491.043 1128.82 491.043 1123.73 488.453C1118.16 455.392 1115.39 434.926 1115.43 427.055C1115.46 421.744 1113.83 408.663 1111.95 395.309C1110.26 383.149 1108.39 370.826 1106.35 358.342L1138.9 356.279C1137.1 386.345 1136.94 409.937 1138.42 427.055C1139.87 444.172 1139.86 464.638 1138.39 488.453Z" fill="#F99746"/>
<path fill-rule="evenodd" clip-rule="evenodd" d="M1121.07 261.131C1119.67 260.919 1116.95 260.191 1116.83 257.702C1116.8 256.943 1117.04 256.306 1117.52 255.881C1118.07 255.395 1118.86 255.183 1119.7 255.335L1123.94 255.972C1124.77 256.093 1125.3 256.417 1125.55 256.943C1125.94 257.793 1125.37 258.885 1125.09 259.341C1124.18 260.828 1123.15 261.405 1121.85 261.222C1121.79 261.222 1121.49 261.192 1121.07 261.131ZM1119.64 255.608C1118.89 255.486 1118.19 255.668 1117.7 256.093C1117.28 256.457 1117.1 257.004 1117.13 257.671C1117.19 258.946 1117.98 259.887 1119.52 260.464C1120.7 260.889 1121.85 260.949 1121.88 260.949C1123.06 261.131 1124 260.555 1124.85 259.189C1125.03 258.885 1125.64 257.793 1125.27 257.064C1125.07 256.64 1124.62 256.377 1123.91 256.275L1119.64 255.608Z" fill="#2C3A64"/>
<path fill-rule="evenodd" clip-rule="evenodd" d="M1130.91 262.649C1130.48 262.588 1130.18 262.527 1130.15 262.497C1128.85 262.285 1128.03 261.405 1127.61 259.705C1127.49 259.219 1127.27 258.005 1127.91 257.307C1128.29 256.882 1128.89 256.731 1129.7 256.852L1133.97 257.52C1134.81 257.641 1135.51 258.096 1135.87 258.703C1136.21 259.25 1136.24 259.948 1135.99 260.646C1135.12 262.983 1132.3 262.861 1130.91 262.649ZM1129.67 257.156C1128.96 257.034 1128.44 257.145 1128.12 257.489C1127.58 258.096 1127.82 259.31 1127.91 259.644C1128.27 261.222 1129.03 262.042 1130.18 262.224H1130.21C1130.21 262.224 1131.36 262.527 1132.6 262.467C1134.24 262.406 1135.27 261.738 1135.72 260.555C1135.93 259.917 1135.9 259.341 1135.63 258.855C1135.3 258.309 1134.69 257.914 1133.94 257.793L1129.67 257.156Z" fill="#2C3A64"/>
<path d="M1125 258.157C1124.94 258.157 1124.88 258.096 1124.85 258.036C1124.85 257.945 1124.88 257.854 1124.97 257.823C1125.06 257.823 1126.85 257.307 1128.21 258.339C1128.27 258.4 1128.3 258.491 1128.24 258.582C1128.18 258.643 1128.09 258.673 1128 258.612C1126.76 257.702 1125.09 258.157 1125.06 258.157C1125.04 258.157 1125.02 258.157 1125 258.157Z" fill="#2C3A64"/>
<path d="M1130.94 284.804C1131.81 287.698 1125.92 300.384 1113.28 322.863C1108.86 321.224 1108.31 307.193 1111.62 280.768L1121.25 284.956L1130.94 284.804Z" fill="white"/>
<path d="M1120.91 284.956L1118.55 288.811C1114.92 287.475 1112.41 284.562 1111.01 280.07C1111.96 279.179 1113.34 278.572 1115.16 278.249C1116.03 281.304 1117.95 283.54 1120.91 284.956Z" fill="#D2E3FC"/>
<path d="M1120.91 284.956C1126.89 284.713 1130.32 283.155 1131.21 280.282C1132.4 281.516 1132.98 283.145 1132.94 285.169C1131.04 288.042 1127.73 289.499 1123 289.539L1120.91 284.956Z" fill="#D2E3FC"/>
<path d="M1121.67 266.564C1124.84 266.706 1127.13 267.06 1128.55 267.626C1127.58 268.78 1126.46 269.265 1125.18 269.083C1123.28 268.78 1121.94 267.869 1121.67 266.564Z" fill="#FFF0E6"/>
<path d="M1087.91 252.512C1083.58 255.244 1077.67 258.946 1072.86 261.86C1072.62 261.03 1072.44 260.292 1072.34 259.644C1071.27 252.846 1071.52 237.62 1073.07 213.967C1074.14 213.421 1075.23 213.108 1076.34 213.027C1078.42 212.845 1079.85 213.462 1080.64 214.878C1084.29 235.678 1086.72 248.223 1087.91 252.512Z" fill="#B56F40"/>
<path d="M1164.49 375.885L1161.22 377.25C1156.01 379.102 1150.38 376.583 1148.68 371.302C1146.38 364.2 1146.14 356.552 1145.29 350.239C1144.87 347.143 1144.38 340.739 1142.51 335.762C1142.51 335.762 1142.51 335.752 1142.51 335.732L1145.78 446.024C1113.05 448.35 1088.71 440.075 1072.74 421.197C1071.46 391.363 1083.37 324.108 1087.7 300.799C1085.61 296.034 1070.74 282.467 1068.26 269.113C1067.1 262.922 1070.74 258.521 1075.1 255.577C1078.79 253.089 1082.89 251.349 1087.39 250.357L1103.26 271.632C1103.93 272.391 1104.41 272.998 1104.59 273.362C1105.4 275.042 1107.92 277.257 1112.16 280.009C1112.13 280.161 1112.86 315.852 1114.13 317.006C1116.01 316.308 1128.55 291.178 1131.3 282.801C1135.3 283.894 1139.6 285.381 1144.14 287.384C1149.85 290.46 1153.12 298.674 1153.95 312.028C1154.98 329.024 1165.34 350.694 1167.67 370.422C1167.97 372.759 1166.64 374.974 1164.49 375.885Z" fill="#1C468A"/>
<path d="M1112.89 280.009L1114.62 314.426L1132.03 282.801L1135.06 283.924L1113.01 322.074C1112.04 316.308 1111.16 301.881 1110.38 278.795L1112.89 280.009Z" fill="#C94C43"/>
<path d="M1120.91 284.956L1118.55 287.991C1114.92 286.656 1112.41 283.742 1111.01 279.25C1111.96 278.36 1113.34 277.753 1115.16 277.429C1116.03 280.485 1117.95 282.994 1120.91 284.956Z" fill="white"/>
<path d="M1120.91 284.956C1126.89 284.167 1130.32 282.336 1131.21 279.463C1132.4 280.717 1132.98 282.356 1132.94 284.379C1131.04 287.232 1127.73 288.679 1123 288.719L1120.91 284.956Z" fill="white"/>
<path d="M1109.41 327.416C1110.31 327.416 1111.04 326.682 1111.04 325.777C1111.04 324.872 1110.31 324.138 1109.41 324.138C1108.5 324.138 1107.77 324.872 1107.77 325.777C1107.77 326.682 1108.5 327.416 1109.41 327.416Z" fill="#233862"/>
<path d="M1106.35 342.105C1107.25 342.105 1107.98 341.372 1107.98 340.466C1107.98 339.561 1107.25 338.827 1106.35 338.827C1105.45 338.827 1104.71 339.561 1104.71 340.466C1104.71 341.372 1105.45 342.105 1106.35 342.105Z" fill="#233862"/>
<path d="M1102.41 242.314C1102.47 242.072 1102.78 242.011 1102.96 242.193C1103.11 242.375 1103.17 242.618 1103.08 242.83C1102.41 244.56 1099.87 252.239 1105.32 258.005L1104.77 258.521C1099.08 252.512 1101.62 244.348 1102.41 242.314Z" fill="#EFCBAB"/>
<path d="M1105.32 258.005L1106.2 258.491L1105.26 259.371L1104.77 258.521L1105.32 258.005Z" fill="#D8A987"/>
<path d="M1106.2 258.491C1106.86 259.199 1107.35 259.482 1107.65 259.341C1107.29 260.049 1106.9 260.403 1106.5 260.403C1105.85 260.059 1105.44 259.715 1105.26 259.371L1106.2 258.491Z" fill="#EFCBAB"/>
<path d="M1117.92 248.142L1131.54 246.321C1138.49 251.278 1140.63 254.262 1137.96 255.274C1135.3 256.306 1132.74 254.373 1130.3 249.477C1130.22 250.772 1128.59 251.096 1125.4 250.448C1124.47 251.237 1122.97 251.369 1120.91 250.843C1120.17 252.138 1118.52 252.694 1115.98 252.512L1117.92 248.142Z" fill="#C94C43"/>
<path d="M1119.25 243.225C1129.64 240.19 1135.27 244.014 1137.6 245.956C1138.45 246.624 1138.93 247.626 1138.96 248.688L1139.11 254.181C1130.45 249.163 1122.57 247.919 1115.46 250.448L1116.25 247.019C1116.58 245.562 1117.8 243.65 1119.25 243.225Z" fill="#1C468A"/>
<path d="M1069.74 205.045C1069.71 204.832 1069.01 203.345 1069.95 202.01C1070.92 200.644 1077.22 198.55 1077.82 199.642C1078.4 200.765 1078.04 204.589 1076.01 205.409C1073.98 206.259 1069.89 205.894 1069.74 205.045Z" fill="#B56F40"/>
<path d="M1087.7 300.799C1085.61 296.034 1070.74 282.467 1068.26 269.113C1067.1 262.922 1070.74 258.521 1075.1 255.577C1073.75 261.809 1075.01 267.748 1078.88 273.393C1082.78 279.038 1085.72 288.173 1087.7 300.799Z" fill="#233862"/>
<path d="M1161.22 377.25C1156.01 379.102 1150.38 376.583 1148.68 371.302C1146.38 364.2 1146.14 356.552 1145.29 350.239C1144.87 347.143 1144.38 340.739 1142.5 335.762C1142.69 336.035 1148.35 344.988 1153.41 359.465C1158.55 374.185 1156.95 376.34 1161.22 377.25Z" fill="#233862"/>
<path d="M1360.53 498.924H1332.82C1331.34 497.679 1333.85 494.796 1336.49 494.614C1337.61 494.523 1339.06 494.766 1340.7 495.1C1341.09 490.031 1343.27 467.238 1351.48 468.149C1360.68 469.181 1351.48 478.195 1348.87 483.536C1346.93 487.482 1344.9 493.157 1343.97 495.828C1344.71 495.99 1345.48 496.142 1346.27 496.283C1347.51 492.55 1352.05 479.894 1357.83 480.623C1364.62 481.472 1361.89 486.571 1357.08 489.576C1353.53 491.791 1349.2 494.918 1347.15 496.465C1348.9 496.739 1350.72 496.921 1352.57 496.89C1357.32 496.769 1359.62 498.165 1360.53 498.924Z" fill="#82B378"/>
<path d="M653.19 498.924C652.1 498.924 631.721 477.739 630.358 483.293C629.47 486.976 637.08 492.186 653.19 498.924Z" fill="#82B378"/>
<path d="M968.751 411.334C970.719 408.268 954.155 374.124 963.058 355.125C963.785 353.547 971.032 353.942 984.8 356.309C987.606 388.298 988.222 408.521 986.647 416.979C984.982 425.962 981.681 452.428 979.894 467.208C979.894 467.248 979.894 467.299 979.894 467.36C979.47 470.85 979.137 473.703 978.925 475.463C978.774 476.799 978.925 478.134 979.38 479.409C980.682 483.02 983.558 490.486 984.982 491.518C979.773 493.016 976.674 493.471 975.685 492.884C974.676 492.297 972.899 487.411 970.356 478.225C971.022 476.92 971.264 475.463 971.022 474.037C970.749 472.155 970.295 469.211 969.78 465.599C963.058 438.284 964.057 418.709 968.751 411.334Z" fill="#FFB27D"/>
<path d="M924.631 472.58C925.721 471.639 926.448 470.334 926.751 468.938C927.144 467.056 927.75 464.143 928.568 460.592C931.899 432.639 939.741 414.702 946.736 409.482C949.643 407.267 946.191 369.481 961.211 354.852C962.462 353.638 969.104 356.572 981.136 363.654C972.496 394.57 965.935 413.711 961.453 421.076C956.729 428.876 944.344 452.488 937.47 465.69C935.805 468.877 934.442 471.457 933.625 473.035C933.019 474.249 932.686 475.554 932.656 476.89C932.625 480.744 932.111 491.033 933.625 491.943C934.563 492.52 935.381 493.127 936.047 493.734C931.303 493.329 928.638 493.117 928.053 493.096C927.205 493.036 921.754 475.918 921.633 475.585C922.723 474.401 923.844 473.308 924.631 472.58Z" fill="#FFB27D"/>
<path d="M922.875 484.993L917.273 493.096L916.304 492.398L918.09 481.897L922.875 484.993Z" fill="#233862"/>
<path d="M921.633 475.585C921.754 475.918 927.205 493.036 928.053 493.096C928.638 493.117 931.303 493.329 936.047 493.734C938.5 495.98 939.136 498.377 937.47 498.954L926.296 498.924C925.327 496.617 924.419 485.904 918.302 482.686C916.576 481.776 919.059 478.377 921.633 475.585Z" fill="#1C468A"/>
<path d="M929.052 444.081V444.051L938.197 415.4L938.409 414.733L943.708 417.252L960.636 425.325L961.786 425.871L961.029 429.635L958.698 440.955L955.185 458.012C937.44 459.732 928.396 456.12 928.053 447.177L929.052 444.081Z" fill="#F99746"/>
<path d="M929.052 444.051L938.197 415.4L943.708 417.252L960.636 425.325L961.029 429.635L958.698 440.955C944.062 437.758 934.18 438.8 929.052 444.081V444.051Z" fill="#EF7E29"/>
<path d="M970.356 478.225C972.899 487.411 974.676 492.297 975.685 492.884C976.674 493.471 979.773 493.016 984.982 491.518C986.859 492.884 993.036 497.588 991.28 499.015L977.169 498.924C975.443 497.103 971.718 490.486 968.327 488.908C965.844 487.755 968.69 481.442 970.356 478.225Z" fill="#1C468A"/>
<path d="M988.464 428.815L990.947 429.574C990.503 430.404 989.847 441.421 988.979 462.625C977.533 466.024 969.639 464.962 965.299 459.438L961.786 420.924L988.464 428.815Z" fill="#F99746"/>
<path d="M988.464 428.815L989.948 442.412C973.636 441.137 965.42 446.813 965.299 459.438L961.786 420.924L988.464 428.815Z" fill="#EF7E29"/>
<path d="M969.902 258.521L935.805 245.167L955.881 225.774L991.765 240.038L969.902 258.521Z" fill="#233862"/>
<path d="M974.959 246.594C974.999 249.447 976.069 251.318 978.168 252.209C984.679 254.97 978.471 258.187 984.861 262.71C986.314 263.742 987.374 270.206 977.23 271.177C970.467 271.805 966.662 272.412 965.814 272.998C960.807 276.215 955.518 276.165 949.946 272.847C945.101 269.963 951.188 261.951 948.977 259.887C945.98 257.125 945.586 248.111 949.946 244.378C952.853 241.91 956.618 239.947 961.241 238.49L974.959 246.594Z" fill="#132644"/>
<path d="M990.614 239.704C990.553 239.401 990.826 239.128 991.129 239.219C991.432 239.31 991.644 239.553 991.674 239.826C992.037 242.163 994.096 252.178 1003.7 255.031L1003.42 255.911C993.43 252.937 991.068 242.405 990.614 239.704Z" fill="#EFCBAB"/>
<path d="M1003.7 255.031H1004.97L1004.48 256.579L1003.42 255.911L1003.7 255.031Z" fill="#D8A987"/>
<path d="M1004.97 255.031C1006.16 255.355 1006.87 255.355 1007.12 255.031C1007.14 256.022 1006.94 256.65 1006.51 256.913C1005.58 256.933 1004.91 256.822 1004.48 256.579L1004.97 255.031Z" fill="#EFCBAB"/>
<path d="M972.93 307.446C968.569 308.933 959.545 279.281 959.788 279.129C960.272 278.795 961.211 278.31 961.302 276.549C961.392 274.789 961.181 272.452 960.514 269.69C960.151 268.142 959.666 266.473 959 264.713L959.666 264.622L967.994 263.256L971.113 262.74C971.799 265.047 972.536 267.252 973.323 269.356C974.292 271.997 976.442 273.727 977.139 273.818C977.533 273.727 976.715 306.171 972.93 307.446Z" fill="#FFB27D"/>
<path d="M960.514 269.69C962.422 267.019 965.238 264.349 967.994 263.256C969.084 262.801 970.144 262.619 971.113 262.74C967.903 270.591 964.633 275.194 961.302 276.549C961.393 274.789 961.181 272.452 960.514 269.69Z" fill="#ED975D"/>
<path d="M949.946 253.635C950.158 250.418 951.369 246.563 960.938 245.41C970.507 244.257 969.69 250.812 971.325 260.069C972.435 266.24 968.024 270.135 958.092 271.754C954.186 272.148 949.734 256.882 949.946 253.635Z" fill="#FFB27D"/>
<path d="M955.336 294.698C934.22 287.131 922.622 280.94 920.543 276.124C918.444 271.309 918.302 258.309 920.119 237.125L923.753 236.578C923.753 240.615 928.113 268.567 929.9 270.661C931.091 272.078 940.054 275.305 956.79 280.343L955.336 294.698Z" fill="#FFB27D"/>
<path d="M977.23 279.979L973.929 304.987L961.241 277.035C969.296 281.081 974.353 279.888 976.412 273.453L977.23 279.979Z" fill="#F99746"/>
<path d="M986.647 276.306C985.638 279.645 994.823 286.605 1014.2 297.187L1035.64 282.467L1038.22 284.653C1024.51 301.204 1016.59 309.297 1014.45 308.933C1012.31 308.589 1003.88 303.561 989.16 293.849L986.647 276.306Z" fill="#FFB27D"/>
<path d="M928.053 351.696C932.898 337.189 937.894 327.416 937.894 316.672C910.136 317.077 907.472 301.74 929.9 270.661C941.134 275.274 961.241 277.035 961.241 277.035L973.717 300.192L976.412 273.453C976.987 273.393 989.251 272.513 994.399 275.912C1000.15 279.736 1002.36 290.449 1014.2 297.187C1014.75 297.491 1019.35 307.445 1018.84 316.611C1018.47 322.59 1015.96 328.205 1008.75 330.633C1005.45 331.756 997.427 329.783 995.853 323.774C995.994 324.502 996.125 325.251 996.246 326.02C999.84 348.317 1002.44 386.578 1004.06 440.803C978.411 446.782 941.074 434.43 929.537 427.996C919.392 422.29 913.306 412.79 910.217 406.599C909.026 404.191 908.168 402.158 907.643 400.499C918.06 377.554 924.863 361.286 928.053 351.696Z" fill="#1C468A"/>
<path d="M961.332 264.986C961.231 265.997 960.857 266.625 960.211 266.868C959.273 267.262 956.729 267.96 956.487 267.808C956.305 267.707 955.891 267.272 955.245 266.503C957.89 265.411 959.919 264.905 961.332 264.986Z" fill="white"/>
<path d="M919.998 238.642C916.001 229.992 917.666 227.504 918.514 226.988C919.362 226.502 922.723 232.845 922.935 232.299C923.208 231.662 923.541 229.112 923.995 229.082C924.389 229.021 924.025 230.63 924.57 232.602C925.115 234.565 924.873 235.9 923.844 236.609L919.998 238.642Z" fill="#FFB27D"/>
<path d="M1035.64 282.468C1037.18 278.846 1038.2 276.671 1038.7 275.942C1040.18 273.727 1044.48 272.331 1044.76 273.302C1045.03 274.273 1042 275.73 1041.88 278.006C1041.85 278.613 1043.12 277.399 1043.91 276.944C1044.39 276.64 1044.67 276.883 1044.42 277.247C1043.18 279.068 1042.49 280.98 1041.27 281.678C1040.47 282.144 1039.45 283.135 1038.22 284.653L1035.64 282.468Z" fill="#FFB27D"/>
<path d="M979.743 273.332L975.049 309.874L956.79 276.549H961.302L973.717 300.192L976.412 273.454L979.743 273.332Z" fill="#AA443E"/>
<path d="M968.115 244.378C972.809 244.773 981.409 269.508 976.14 271.147C969.478 273.241 964.966 267.475 966.752 262.103C967.964 258.491 965.753 254.212 961.332 253.423C952.167 251.743 949.038 249.184 951.945 245.744C959.596 244.591 964.986 244.135 968.115 244.378Z" fill="#132644"/>
<path d="M956.79 246.928C953.842 249.052 952.248 250.964 952.005 252.664C951.612 255.183 950.582 258.825 948.886 256.275C947.221 253.696 946.918 250.205 948.886 247.868C950.855 245.532 955.276 244.469 956.215 245.258C956.84 245.805 957.032 246.361 956.79 246.928Z" fill="#132644"/>
<path d="M950.491 240.918C952.339 237.276 954.731 237.792 958.819 237.762C964.754 237.701 968.933 239.128 971.628 240.584C974.02 241.859 974.868 241.829 975.564 244.469L975.322 248.9C963.391 241.758 954.61 240.605 948.977 245.44L950.491 240.918Z" fill="#1C468A"/>
<path d="M1040.37 280.1C1038.97 278.684 1030.46 274.111 1014.84 266.382C1015.11 264.864 1015.87 263.286 1016.78 261.86C1017.26 261.101 1017.78 260.373 1018.29 259.705C1019.18 258.552 1020.04 257.58 1020.86 256.791C1033.06 266.362 1039.83 271.744 1041.18 272.938C1042.54 274.152 1050.67 279.291 1065.59 288.355C1065.56 288.78 1065.41 289.236 1065.2 289.751C1064.8 290.662 1064.2 291.633 1063.56 292.544C1062.65 293.879 1061.66 295.123 1060.59 296.277C1048.52 286.909 1041.78 281.516 1040.37 280.1Z" fill="#EFCBAB"/>
<path d="M1043.12 276.124C1041.18 274.182 1023.35 265.168 1016.78 261.86C1017.26 261.101 1017.78 260.373 1018.29 259.705C1019.18 258.552 1020.04 257.58 1020.86 256.791C1033.06 266.362 1039.83 271.744 1041.18 272.938C1042.54 274.152 1050.67 279.291 1065.59 288.355C1065.56 288.78 1065.41 289.235 1065.2 289.751C1064.8 290.662 1064.2 291.633 1063.56 292.544C1058.14 288.325 1045 278.006 1043.12 276.124Z" fill="#DDB08E"/>
<path d="M1037.61 270.024C1041.75 271.966 1044.35 273.909 1045.42 275.851L1041.91 281.466C1038.12 279.645 1035.41 277.864 1033.79 276.124L1037.61 270.024Z" fill="#C94C43"/>
<path d="M1038.22 281.132C1038.31 280.92 1037.91 280.07 1038.97 279.888C1040.03 279.706 1042.85 277.733 1044.42 277.247C1046 276.762 1044.73 278.674 1043.79 279.857C1043.16 280.626 1042.32 281.233 1041.27 281.678C1039.2 281.476 1038.18 281.294 1038.22 281.132Z" fill="#FFB27D"/>
<path d="M928.053 351.696C932.898 337.189 937.894 327.416 937.894 316.672C942.093 339.434 940.428 358.676 932.898 374.398C926.357 388.086 916.97 399.467 910.217 406.599C909.026 404.191 908.168 402.158 907.643 400.499C918.06 377.554 924.863 361.286 928.053 351.696Z" fill="#233862"/>
<path d="M976.109 320.617C976.728 320.617 977.23 320.115 977.23 319.494C977.23 318.874 976.728 318.372 976.109 318.372C975.49 318.372 974.989 318.874 974.989 319.494C974.989 320.115 975.49 320.617 976.109 320.617Z" fill="#233862"/>
<path d="M976.109 341.104C976.728 341.104 977.23 340.601 977.23 339.981C977.23 339.361 976.728 338.858 976.109 338.858C975.49 338.858 974.989 339.361 974.989 339.981C974.989 340.601 975.49 341.104 976.109 341.104Z" fill="#233862"/>
<path d="M991.765 307.506C991.855 307.779 995.308 315.913 1000.88 319.494C1006.33 323.045 1018.05 317.036 1018.84 316.611C1018.47 322.59 1015.96 328.205 1008.75 330.633C1005.45 331.756 997.427 329.783 995.853 323.774C995.994 324.502 996.125 325.251 996.246 326.02L991.765 307.506Z" fill="#233862"/>
<path d="M1231.56 218.641C1230.62 219.704 1228.5 221.16 1227.17 221.464C1224.26 222.172 1221.05 221.565 1217.54 219.643L1219.6 215.637C1219.72 215.819 1222.6 218.277 1225.45 218.429C1227.97 218.571 1230.33 217.812 1232.53 216.153C1232.57 217.043 1232.25 217.873 1231.56 218.641Z" fill="#6BB7BF"/>
<path d="M1232.08 208.019L1237.59 205.439C1237.45 213.269 1234.21 218.53 1227.87 221.221C1231.68 215.677 1233.09 211.276 1232.08 208.019Z" fill="#86D1CD"/>
<path d="M645.741 325.716C644.802 326.778 642.682 328.205 641.35 328.539C638.443 329.247 635.233 328.64 631.721 326.718L633.78 322.712C633.901 322.863 636.808 325.352 639.624 325.504C642.168 325.645 644.54 324.887 646.74 323.228C646.76 324.118 646.427 324.947 645.741 325.716Z" fill="#6BB7BF"/>
<path d="M646.256 315.094L651.767 312.484C651.625 320.334 648.385 325.605 642.046 328.296C645.862 322.752 647.265 318.351 646.256 315.094Z" fill="#86D1CD"/>
<path d="M1095.63 136.605C1104.19 135.088 1109.55 136.049 1111.71 139.489L1105.11 142.342C1101.09 136.798 1096.41 135.887 1091.06 139.61C1088.51 138.619 1090.04 137.617 1095.63 136.605Z" fill="#5685D8"/>
<path d="M1083.15 145.073C1084.61 139.043 1090.82 136.029 1101.81 136.029C1097.69 136.413 1094.02 139.286 1090.81 144.648L1083.15 145.073Z" fill="#739AF0"/>
<path d="M1032.61 178.033C1031.06 177.325 1029.62 175.099 1028.28 171.356C1028.91 170.425 1030.66 169.879 1033.52 169.717C1033.85 171.983 1035.48 174.047 1038.43 175.909C1038.04 177.548 1036.11 178.256 1032.61 178.033Z" fill="#ED7D2B"/>
<path d="M1326.49 414.429C1324.94 413.741 1323.5 411.526 1322.16 407.783C1322.79 406.852 1324.55 406.305 1327.43 406.144C1327.73 408.41 1329.37 410.474 1332.34 412.335C1331.93 413.974 1329.99 414.672 1326.49 414.429Z" fill="#ED7D2B"/>
<path d="M602.893 406.599C601.338 405.891 599.895 403.665 598.563 399.922C599.188 398.991 600.945 398.445 603.832 398.283C604.134 400.549 605.759 402.613 608.707 404.474C608.323 406.113 606.385 406.822 602.893 406.599Z" fill="#ED7D2B"/>
<path d="M658.096 498.924C649.576 475.494 642.329 464.78 636.354 466.783C630.378 468.766 637.625 479.479 658.096 498.924Z" fill="#82B378"/>
<path d="M443.462 222.307C459.56 219.46 469.639 221.263 473.702 227.717L461.287 233.071C453.732 222.668 444.924 220.96 434.863 227.945C430.08 226.085 432.946 224.206 443.462 222.307Z" fill="#5685D8"/>
<path d="M420 238.196C422.733 226.882 434.427 221.225 455.08 221.225C447.335 221.947 440.444 227.338 434.408 237.398L420 238.196Z" fill="#739AF0"/>
<path d="M502.373 485.775C487.382 441.795 474.629 421.684 464.114 425.444C453.599 429.166 466.352 449.277 502.373 485.775Z" fill="#82B378"/>
<path d="M493.741 485.775C491.822 485.775 455.961 446.01 453.563 456.436C452 463.348 465.393 473.128 493.741 485.775Z" fill="#82B378"/>
<path d="M442 485.775C446.014 480.078 451.947 478.179 459.798 480.078C471.574 482.984 479.62 478.825 498.377 475.008C510.917 472.501 522.124 476.09 532 485.775H442Z" fill="#82B378"/>
<path d="M428.3 107.4C423.167 105.067 418.4 97.7333 414 85.4C416.067 82.3333 421.833 80.5333 431.3 80C432.367 87.4667 437.767 94.2666 447.5 100.4C446.233 105.8 439.833 108.133 428.3 107.4Z" fill="#ED7D2B"/>
<path d="M62.9354 489H0.98819C-2.3292 486.253 3.29012 479.887 9.18018 479.485C11.6851 479.284 14.9348 479.821 18.5907 480.558C19.4708 469.368 24.3454 419.048 42.6926 421.059C63.274 423.337 42.6925 443.237 36.8702 455.029C32.5373 463.74 28.0013 476.269 25.9025 482.166C27.5725 482.523 29.2875 482.858 31.0477 483.171C33.8235 474.929 43.9789 446.989 56.91 448.597C72.0752 450.473 65.982 461.73 55.2174 468.363C47.2963 473.254 37.6149 480.156 33.0112 483.573C36.9379 484.176 40.9999 484.578 45.1298 484.511C55.7589 484.243 60.9043 487.325 62.9354 489Z" fill="#82B378"/>
<path d="M380.462 326.307C396.56 323.46 406.639 325.263 410.702 331.717L398.287 337.071C390.732 326.668 381.924 324.96 371.863 331.945C367.08 330.085 369.946 328.206 380.462 326.307Z" fill="#5685D8"/>
<path d="M357 342.196C359.733 330.882 371.427 325.225 392.08 325.225C384.335 325.947 377.444 331.338 371.408 341.398L357 342.196Z" fill="#739AF0"/>
<path d="M109.462 193.307C125.56 190.46 135.639 192.263 139.702 198.717L127.287 204.071C119.732 193.668 110.924 191.96 100.863 198.945C96.0797 197.085 98.9461 195.206 109.462 193.307Z" fill="#5685D8"/>
<path d="M86 209.196C88.7335 197.882 100.427 192.225 121.08 192.225C113.335 192.947 106.444 198.338 100.408 208.398L86 209.196Z" fill="#739AF0"/>
<path d="M80.2999 343.4C75.1666 341.067 70.4 333.733 66 321.4C68.0667 318.333 73.8333 316.533 83.2999 316C84.3666 323.467 89.7667 330.267 99.5 336.4C98.2333 341.8 91.8333 344.133 80.2999 343.4Z" fill="#ED7D2B"/>
<path d="M346.3 414.4C341.167 412.067 336.4 404.733 332 392.4C334.067 389.333 339.833 387.533 349.3 387C350.367 394.467 355.767 401.267 365.5 407.4C364.233 412.8 357.833 415.133 346.3 414.4Z" fill="#ED7D2B"/>
<path d="M26.5218 271.975C24.7461 273.98 20.7363 276.672 18.2159 277.302C12.7167 278.639 6.64478 277.493 0 273.865L3.89521 266.304C4.12434 266.591 9.62346 271.288 14.9507 271.574C19.7625 271.841 24.2496 270.409 28.4121 267.278C28.4503 268.958 27.8202 270.524 26.5218 271.975Z" fill="#6BB7BF"/>
<path d="M27.4957 251.926L37.9212 247C37.6539 261.817 31.5246 271.765 19.5334 276.844C26.7511 266.381 29.4052 258.075 27.4957 251.926Z" fill="#86D1CD"/>
<path d="M152.522 380.975C150.746 382.98 146.736 385.672 144.216 386.302C138.717 387.639 132.645 386.493 126 382.865L129.895 375.304C130.124 375.591 135.623 380.288 140.951 380.574C145.762 380.841 150.25 379.409 154.412 376.278C154.45 377.958 153.82 379.524 152.522 380.975Z" fill="#6BB7BF"/>
<path d="M153.496 360.926L163.921 356C163.654 370.817 157.525 380.765 145.533 385.844C152.751 375.381 155.405 367.075 153.496 360.926Z" fill="#86D1CD"/>
<path d="M479.522 305.975C477.746 307.98 473.736 310.672 471.216 311.302C465.717 312.639 459.645 311.493 453 307.865L456.895 300.304C457.124 300.591 462.623 305.288 467.951 305.574C472.762 305.841 477.25 304.409 481.412 301.278C481.45 302.958 480.82 304.524 479.522 305.975Z" fill="#6BB7BF"/>
<path d="M480.496 285.926L490.921 281C490.654 295.817 484.525 305.765 472.533 310.844C479.751 300.381 482.405 292.075 480.496 285.926Z" fill="#86D1CD"/>
</svg>
